<svg height="512"
		 width="512"
		 viewBox="0 0 58 58"
		 xmlns="http://www.w3.org/2000/svg">
	<g fill="none">
		<rect fill="#ccc" height="58" rx="8" width="58"/>
		<path d="m47.83 0h-37.66c-3.96 0-7.17 3.58-7.17 8v42c0 4.42 3.21 8 7.17 8h37.66c4 0 7.17-3.58 7.17-8v-42c0-4.42-3.21-8-7.17-8z"
					fill="#ddd"/>
		<path d="m43 22c-.5522847 0-1-.4477153-1-1v-4c0-.5522847-.4477153-1-1-1h-15c-.5522847 0-1-.4477153-1-1s.4477153-1 1-1h15c1.6568542 0 3 1.3431458 3 3v4c0 .5522847-.4477153 1-1 1z"
					fill="#e64c3c"/>
		<path d="m32 44h-15c-1.6568542 0-3-1.3431458-3-3v-4c0-.5522847.4477153-1 1-1s1 .4477153 1 1v4c0 .5522847.4477153 1 1 1h15c.5522847 0 1 .4477153 1 1s-.4477153 1-1 1z"
					fill="#e64c3c"/>
		<circle cx="15" cy="15" fill="#f3d55b" r="11"/>
		<circle cx="43" cy="43" fill="#f3d55b" r="11"/>
		<path d="m15 27c-6.627417 0-12-5.372583-12-12s5.372583-12 12-12 12 5.372583 12 12c0 3.1825979-1.2642821 6.2348448-3.5147186 8.4852814-2.2504366 2.2504365-5.3026835 3.5147186-8.4852814 3.5147186zm0-22c-5.5228475 0-10 4.4771525-10 10s4.4771525 10 10 10 10-4.4771525 10-10c0-2.6521649-1.0535684-5.19570403-2.9289322-7.07106781-1.8753638-1.87536379-4.4189029-2.92893219-7.0710678-2.92893219z"
					fill="#e4c05c"/>
		<path d="m43 55c-4.8535469 0-9.2291824-2.9237061-11.0865544-7.4077988s-.8307029-9.6455066 2.601273-13.0774826c3.431976-3.4319759 8.5933899-4.458645 13.0774826-2.601273s7.4077988 6.2330075 7.4077988 11.0865544c0 3.1825979-1.2642821 6.2348448-3.5147186 8.4852814-2.2504366 2.2504365-5.3026835 3.5147186-8.4852814 3.5147186zm0-22c-5.5228475 0-10 4.4771525-10 10s4.4771525 10 10 10 10-4.4771525 10-10-4.4771525-10-10-10z"
					fill="#e4c05c"/>
		<g transform="translate(-6 -6) scale(1)" fill="#f29c1f" stroke-width="0.35px" stroke="#f29c1f">
			<path d="m43 49c.0021403-2.2729027 1.1076967-4.4032711 2.9649936-5.7134388s4.2350896-1.6370108 6.3770064-.8765612c.5081613.1962197.7657941.7630642.5794616 1.2749336-.1863324.5118694-.7480765.7804416-1.2634616.6040664-2.0728055-.7370999-4.3838636-.032762-5.6932301 1.7351177-1.3093664 1.7678797-1.3093664 4.1838849 0 5.9517646 1.3093665 1.7678797 3.6204246 2.4722176 5.6932301 1.7351177.5153851-.1763752 1.0771292.092197 1.2634616.6040664.1863325.5118694-.0713003 1.0787139-.5794616 1.2749336-2.1419168.7604496-4.5197095.4336065-6.3770064-.8765612s-2.9628533-3.4405361-2.9649936-5.7134388z"/>
			<path d="m48 48h-5c-.5522847 0-1-.4477153-1-1s.4477153-1.3 2.7-1h5c.5522847 0 1 .4477153 1 1s-.4477153 1-1 1z"/>
			<path d="m48 52h-5c-.5522847 0-1-.4477153-1-1s.4477153-1 1-1h5c.5522847 0 1 .4477153 1 1s-.4477153 1-1 1z"/>
		</g>
		<g transform="translate(-34 -34) scale(1)" fill="#f29c1f" stroke-width="0.35px" stroke="#f29c1f">
			<path d="m43 49c.0021403-2.2729027 1.1076967-4.4032711 2.9649936-5.7134388s4.2350896-1.6370108 6.3770064-.8765612c.5081613.1962197.7657941.7630642.5794616 1.2749336-.1863324.5118694-.7480765.7804416-1.2634616.6040664-2.0728055-.7370999-4.3838636-.032762-5.6932301 1.7351177-1.3093664 1.7678797-1.3093664 4.1838849 0 5.9517646 1.3093665 1.7678797 3.6204246 2.4722176 5.6932301 1.7351177.5153851-.1763752 1.0771292.092197 1.2634616.6040664.1863325.5118694-.0713003 1.0787139-.5794616 1.2749336-2.1419168.7604496-4.5197095.4336065-6.3770064-.8765612s-2.9628533-3.4405361-2.9649936-5.7134388z"/>
			<path d="m48 48h-5c-.5522847 0-1-.4477153-1-1s.4477153-1.3 2.7-1h5c.5522847 0 1 .4477153 1 1s-.4477153 1-1 1z"/>
			<path d="m48 52h-5c-.5522847 0-1-.4477153-1-1s.4477153-1 1-1h5c.5522847 0 1 .4477153 1 1s-.4477153 1-1 1z"/>
		</g>
		<path d="m4 51c-.55228475 0-1-.4477153-1-1v-11c0-.5522847.44771525-1 1-1s1 .4477153 1 1v11c0 .5522847-.44771525 1-1 1z"
					fill="#eee"/>
		<path d="m4 35c-.55228475 0-1-.4477153-1-1v-4c0-.5522847.44771525-1 1-1s1 .4477153 1 1v4c0 .5522847-.44771525 1-1 1z"
					fill="#eee"/>
		<path d="m54 19c-.5522847 0-1-.4477153-1-1v-11c0-.55228475.4477153-1 1-1s1 .44771525 1 1v11c0 .5522847-.4477153 1-1 1z"
					fill="#eee"/>
		<path d="m54 28c-.5522847 0-1-.4477153-1-1v-4c0-.5522847.4477153-1 1-1s1 .4477153 1 1v4c0 .5522847-.4477153 1-1 1z"
					fill="#eee"/>
		<path d="m46.35 21.81-3 3.7c-.0948984.1182856-.2383517.1871102-.39.1871102s-.2951016-.0688246-.39-.1871102l-3-3.7c-.1240199-.1557033-.1438666-.3701402-.05053-.5459603.0933367-.1758202.2820744-.2795271.48053-.2640397h6c.1840466.0151304.3447687.1304734.4180177.2999924.0732489.1695189.047097.3656099-.0680177.5100076z"
					fill="#e64c3c"/>
		<path d="m18 37h-6c-.1912461-.0008785-.3652377-.110772-.4482041-.2830869s-.0603718-.3768611.0582041-.5269131l3-3.7c.0948984-.1182856.2383517-.1871102.39-.1871102s.2951016.0688246.39.1871102l3 3.7c.1185759.150052.1411705.3545982.0582041.5269131s-.256958.2822084-.4482041.2830869z"
					fill="#e64c3c"/>
	</g>
</svg>