<svg version="1.1"
		 xmlns="http://www.w3.org/2000/svg"
		 xmlns:xlink="http://www.w3.org/1999/xlink"
		 width="512"
		 height="512"
		 viewBox="0 0 58 58">
	<g id="card1" transform="rotate(10 0 45)">
		<path fill="#F0C41B" d="M54.783,50H3.217C1.44,50,0,48.56,0,46.783V11.217C0,9.44,1.44,8,3.217,8h51.566 C56.56,8,58,9.44,58,11.217v35.566C58,48.56,56.56,50,54.783,50"/>
		<rect y="13" fill="#806F5E" width="58" height="8"/>
		<g transform="translate(0 13)">
			<path fill="#F9EAB0" d="M15,28H6c-0.552,0-1-0.448-1-1s0.448-1,1-1h9c0.552,0,1,0.448,1,1S15.552,28,15,28" />
			<path fill="#F9EAB0" d="M28,28h-9c-0.552,0-1-0.448-1-1s0.448-1,1-1h9c0.552,0,1,0.448,1,1S28.552,28,28,28"/>
			<path fill="#F9EAB0" d="M7,33H6c-0.552,0-1-0.448-1-1s0.448-1,1-1h1c0.552,0,1,0.448,1,1S7.552,33,7,33"/>
			<path fill="#F9EAB0" d="M13,33h-2c-0.552,0-1-0.448-1-1s0.448-1,1-1h2c0.552,0,1,0.448,1,1S13.552,33,13,33"/>
			<path fill="#F9EAB0" d="M18,33h-1c-0.552,0-1-0.448-1-1s0.448-1,1-1h1c0.552,0,1,0.448,1,1S18.552,33,18,33"/>
			<path fill="#F9EAB0" d="M24,33h-2c-0.552,0-1-0.448-1-1s0.448-1,1-1h2c0.552,0,1,0.448,1,1S24.552,33,24,33"/>
			<path fill="#F9EAB0" d="M28,33c-0.26,0-0.52-0.11-0.71-0.29C27.11,32.52,27,32.27,27,32 c0-0.26,0.11-0.52,0.29-0.71c0.37-0.37,1.04-0.37,1.42,0C28.89,31.48,29,31.74,29,32s-0.11,0.52-0.29,0.71 C28.52,32.89,28.26,33,28,33"/>
		</g>
		<g transform="translate(36 21) scale(0.09)">
			<path fill="#293688" d="M121.946,248.771l-2.586-14.679c-5.358-17.111-21.987-35.625-40.621-44.901l25.938,93.256h31.09
			l46.626-107.074H151.31L121.946,248.771z"/>
			<path fill="#F7981D" d="M46.823,175.373v1.729c36.838,8.86,62.413,31.259,72.538,56.991l-10.645-49.582
				c-1.777-6.776-7.162-8.902-13.534-9.137L46.823,175.373L46.823,175.373z"/>
		</g>
	</g>
	<g id="card2" transform="translate(0 -5)" opacity="1">
		<path d="m54.783 50h-51.566c-1.778 0-3.217-1.44-3.217-3.217v-35.566c0-1.777 1.439-3.217 3.217-3.217h51.566c1.777 0 3.217 1.44 3.217 3.217v35.566c0 1.777-1.44 3.217-3.217 3.217"
			fill="#0066cc"/>
		<g fill="#ddd">
			<path d="m15 36h-9c-.553 0-1 .448-1 1s.447 1 1 1h9c.553 0 1-.448 1-1s-.447-1-1-1"/>
			<path d="m29 37c0-.552-.447-1-1-1h-9c-.553 0-1 .448-1 1s.447 1 1 1h9c.553 0 1-.448 1-1"/>
			<path d="m7 41h-1c-.553 0-1 .448-1 1s.447 1 1 1h1c.553 0 1-.448 1-1s-.447-1-1-1"/>
			<path d="m13 41h-2c-.553 0-1 .448-1 1s.447 1 1 1h2c.553 0 1-.448 1-1s-.447-1-1-1"/>
			<path d="m18 41h-1c-.553 0-1 .448-1 1s.447 1 1 1h1c.553 0 1-.448 1-1s-.447-1-1-1"/>
			<path d="m24 41h-2c-.553 0-1 .448-1 1s.447 1 1 1h2c.553 0 1-.448 1-1s-.447-1-1-1"/>
			<path
				d="m27.29 41.29c-.181.19-.29.45-.29.71s.109.52.29.71c.189.18.45.29.71.29s.519-.11.71-.29c.18-.19.29-.45.29-.71s-.11-.52-.29-.71c-.38-.37-1.062-.37-1.42 0"/>
		</g>
		<path d="m46 39c0 3.314-2.686 6-6 6s-6-2.686-6-6 2.686-6 6-6 6 2.686 6 6" fill="#e74c3d"/>
		<path d="m53 39c0 3.314-2.686 6-6 6s-6-2.686-6-6 2.686-6 6-6 6 2.686 6 6" fill="#f0c41b"/>
		<g opacity="0.8">
			<path
				d="m20.745 28h-13.49c-.692 0-1.255-.562-1.255-1.255v-9.49c0-.693.563-1.255 1.255-1.255h13.49c.693 0 1.255.562 1.255 1.255v9.49c0 .693-.562 1.255-1.255 1.255"
				fill="#f0c41b"/>
			<path
				d="m20.745 29h-13.49c-1.243 0-2.255-1.012-2.255-2.255v-9.49c0-1.243 1.012-2.255 2.255-2.255h13.49c1.243 0 2.255 1.012 2.255 2.255v9.49c0 1.243-1.012 2.255-2.255 2.255m-13.49-12c-.142 0-.255.114-.255.255v9.49c0 .141.113.255.255.255h13.49c.141 0 .255-.114.255-.255v-9.49c0-.141-.114-.255-.255-.255z"
				fill="#f3d55c"/>
			<path
				d="m22 17.255c0-.693-.562-1.255-1.255-1.255h-4.745-2.745c-.694 0-1.255.562-1.255 1.255v2.745 6.745c0 .693.561 1.255 1.255 1.255h1.49c.693 0 1.255-.562 1.255-1.255v-5.49c0-.693.562-1.255 1.255-1.255h3.49c.693 0 1.255-.562 1.255-1.255z"
				fill="#f0c41b"/>
			<path
				d="m14.745 29h-1.49c-1.243 0-2.255-1.012-2.255-2.255v-9.49c0-1.243 1.012-2.255 2.255-2.255h7.49c1.243 0 2.255 1.012 2.255 2.255v1.49c0 1.243-1.012 2.255-2.255 2.255h-3.49c-.142 0-.255.114-.255.255v5.49c0 1.243-1.012 2.255-2.255 2.255m-1.49-12c-.142 0-.255.114-.255.255v9.49c0 .141.113.255.255.255h1.49c.141 0 .255-.114.255-.255v-5.49c0-1.243 1.012-2.255 2.255-2.255h3.49c.141 0 .255-.114.255-.255v-1.49c0-.141-.114-.255-.255-.255z"
				fill="#f3d55c"/>
			<path d="m16 24h6" fill="#f0c41b"/>
			<path d="m22 25h-6c-.553 0-1-.448-1-1s.447-1 1-1h6c.553 0 1 .448 1 1s-.447 1-1 1" fill="#f3d55c"/>
			<path d="m12 20h-6" fill="#f0c41b"/>
			<path d="m12 21h-6c-.553 0-1-.448-1-1s.447-1 1-1h6c.553 0 1 .448 1 1s-.447 1-1 1" fill="#f3d55c"/>
			<path d="m12 24h-6" fill="#f0c41b"/>
			<path d="m12 25h-6c-.553 0-1-.448-1-1s.447-1 1-1h6c.553 0 1 .448 1 1s-.447 1-1 1" fill="#f3d55c"/>
		</g>
	</g>

</svg>
