<svg xmlns="http://www.w3.org/2000/svg" viewBox="0 0 64 64" width="64" height="64">
  <style>
    .st3{fill:#ddd}.st5{fill:#f0c41b}.st7{fill:#f3d55c}
  </style>
  <g id="card1">
    <path d="M54.2 49.3H5.4c-1.7 0-3-1.4-3-3V12.6c0-1.7 1.4-3 3-3h48.8c1.7 0 3 1.4 3 3v33.7c0 1.7-1.4 3-3 3" fill="#ffbf00" transform="rotate(10 0 45)"/>
    <path transform="rotate(99.99986751 29.52457935 22.66957179)" fill="#806f5e" d="M26-9.3h7.6v54.9H26z"/>
  </g>
  <g id="card2">
    <path d="M54.2 50H5.4c-1.7 0-3-1.4-3-3V13.3c0-1.7 1.4-3 3-3h48.8c1.7 0 3 1.4 3 3V47c0 1.7-1.3 3-3 3" fill="#1d83d4" transform="translate(0 -5)"/>
    <path class="st3" d="M16.5 36.8H8c-.5 0-.9.4-.9.9s.4.9.9.9h8.5c.5 0 .9-.4.9-.9.1-.5-.3-.9-.9-.9M29.8 37.7c0-.5-.4-.9-.9-.9h-8.5c-.5 0-.9.4-.9.9s.4.9.9.9h8.5c.5.1.9-.4.9-.9M9 41.5H8c-.5 0-.9.4-.9.9s.4.9.9.9h1c.5 0 .9-.4.9-.9s-.4-.9-.9-.9M14.6 41.5h-1.9c-.5 0-.9.4-.9.9s.4.9.9.9h1.9c.5 0 .9-.4.9-.9.1-.5-.3-.9-.9-.9M19.4 41.5h-.9c-.5 0-.9.4-.9.9s.4.9.9.9h.9c.5 0 .9-.4.9-.9s-.4-.9-.9-.9M25.1 41.5h-1.9c-.5 0-.9.4-.9.9s.4.9.9.9h1.9c.5 0 .9-.4.9-.9s-.4-.9-.9-.9M28.2 41.8c-.2.2-.3.4-.3.7 0 .2.1.5.3.7.2.2.4.3.7.3s.5-.1.7-.3c.2-.2.3-.4.3-.7 0-.2-.1-.5-.3-.7-.4-.4-1.1-.4-1.4 0" transform="translate(0 -5)"/>
    <path d="M45.9 39.6c0 3.1-2.5 5.7-5.7 5.7s-5.7-2.5-5.7-5.7 2.5-5.7 5.7-5.7 5.7 2.6 5.7 5.7" fill="#e74c3d" transform="translate(0 -5)"/>
    <path class="st5" d="M52.5 39.6c0 3.1-2.5 5.7-5.7 5.7s-5.7-2.5-5.7-5.7 2.5-5.7 5.7-5.7 5.7 2.6 5.7 5.7" transform="translate(0 -5)"/>
    <g opacity=".8">
      <path class="st5" d="M22 29.2H9.2c-.6 0-1.2-.5-1.2-1.2v-9c0-.7.5-1.2 1.2-1.2H22c.7 0 1.2.5 1.2 1.2v9c0 .7-.6 1.2-1.2 1.2" transform="translate(0 -5)"/>
      <path class="st7" d="M22 30.1H9.2c-1.2 0-2.1-1-2.1-2.1v-9c0-1.2 1-2.1 2.1-2.1H22c1.2 0 2.1 1 2.1 2.1v9c0 1.2-.9 2.1-2.1 2.1M9.2 18.8c-.1 0-.2.1-.2.2v9c0 .1.1.2.2.2H22c.1 0 .2-.1.2-.2v-9c0-.1-.1-.2-.2-.2H9.2z" transform="translate(0 -5)"/>
      <path class="st5" d="M23.2 19c0-.7-.5-1.2-1.2-1.2h-7.1c-.7 0-1.2.5-1.2 1.2v9c0 .7.5 1.2 1.2 1.2h1.4c.7 0 1.2-.5 1.2-1.2v-5.2c0-.7.5-1.2 1.2-1.2H22c.7 0 1.2-.5 1.2-1.2V19z" transform="translate(0 -5)"/>
      <path class="st7" d="M16.3 30.1h-1.4c-1.2 0-2.1-1-2.1-2.1v-9c0-1.2 1-2.1 2.1-2.1H22c1.2 0 2.1 1 2.1 2.1v1.4c0 1.2-1 2.1-2.1 2.1h-3.3c-.1 0-.2.1-.2.2V28c-.1 1.2-1 2.1-2.2 2.1m-1.4-11.3c-.1 0-.2.1-.2.2v9c0 .1.1.2.2.2h1.4c.1 0 .2-.1.2-.2v-5.2c0-1.2 1-2.1 2.1-2.1H22c.1 0 .2-.1.2-.2V19c0-.1-.1-.2-.2-.2h-7.1z" transform="translate(0 -5)"/>
      <path class="st5" d="M17.5 25.4h5.7" transform="translate(0 -5)"/>
      <path class="st7" d="M23.2 26.4h-5.7c-.5 0-.9-.4-.9-.9s.4-.9.9-.9h5.7c.5 0 .9.4.9.9s-.4.9-.9.9" transform="translate(0 -5)"/>
      <path class="st5" d="M13.7 21.6H8" transform="translate(0 -5)"/>
      <path class="st7" d="M13.7 22.6H8c-.5 0-.9-.4-.9-.9s.4-.9.9-.9h5.7c.5 0 .9.4.9.9s-.4.9-.9.9" transform="translate(0 -5)"/>
      <path class="st5" d="M13.7 25.4H8" transform="translate(0 -5)"/>
      <path class="st7" d="M13.7 26.4H8c-.5 0-.9-.4-.9-.9s.4-.9.9-.9h5.7c.5 0 .9.4.9.9s-.4.9-.9.9" transform="translate(0 -5)"/>
    </g>
  </g>
</svg>
