<svg xmlns="http://www.w3.org/2000/svg" viewBox="0 0 64 64" width="64" height="64">
  <g id="card1">
    <path fill="#F0C41B" d="M52.36 60.41L4.19 51.9a3.05 3.06 0 01-2.48-3.55l5.87-33.32a3.05 3.06 0 013.54-2.49l48.17 8.52a3.05 3.06 0 012.48 3.55L55.9 57.94a3.05 3.06 0 01-3.55 2.47"/>
    <path fill="#806F5E" d="M7.28 16.69l54.19 9.59-1.32 7.49-54.2-9.59z"/>
    <path fill="#293688" d="M46.17 52.93v-1.28a7.15 7.17 0 00-2.76-4.39l.8 8.26 2.62.45 5.5-8.34-2.61-.46-3.55 5.76z"/>
    <path fill="#F7981D" d="M40.93 45.62l-.03.14c2.98 1.31 4.8 3.57 5.27 5.9L46 47.3c-.05-.6-.47-.85-1-.97l-4.07-.72z"/>
  </g>
  <g id="card2">
    <path d="M54 45.98H5.08a3.05 3.06 0 01-3.05-3.06V9.1A3.05 3.06 0 015.07 6H54a3.05 3.06 0 013.05 3.07V42.9A3.05 3.06 0 0154 45.98" fill="#06c"/>
    <path d="M46.04 35.51a5.5 5.51 0 11-10.99 0 5.5 5.51 0 0111 0" fill="#e74c3d"/>
    <path d="M53.03 35.51a5.5 5.51 0 11-10.99 0 5.5 5.51 0 0110.99 0" fill="#f0c41b"/>
    <path fill="#ddd" d="M15.46 32.03h-8.5a.95 1 0 100 2h8.5a.95 1 0 100-2m13.25 1a.94 1 0 00-.94-1h-8.51a.95 1 0 100 2h8.5a.94 1 0 00.95-1M7.9 37.02h-.95a.95 1 0 100 2h.95a.95 1 0 100-2m5.67 0h-1.89a.95 1 0 100 2h1.9a.95 1 0 100-2m4.73 0h-.94a.95 1 0 100 2h.94a.95 1 0 100-2m5.67 0H22.1a.95 1 0 100 2h1.9a.95 1 0 100-2m3.1.3a1.02 1.02 0 00.01 1.42c.18.17.42.28.67.28s.5-.1.67-.29a1.07 1.07 0 000-1.42.95.95 0 00-1.35 0"/>
    <g opacity=".8">
      <path d="M20.9 24.06H8.15c-.64 0-1.19-.52-1.19-1.16V14.1c0-.64.54-1.16 1.2-1.16h12.76c.65 0 1.18.52 1.18 1.18v8.8c0 .63-.53 1.15-1.18 1.15" fill="#f0c41b"/>
      <path d="M20.9 24.99H8.15A2.14 2.1 0 016 22.9V14.1a2.14 2.1 0 012.14-2.1H20.9a2.14 2.1 0 012.13 2.1v8.81a2.14 2.1 0 01-2.13 2.1M8.14 13.85a.24.24 0 00-.23.24v8.8c0 .13.1.23.24.23H20.9c.13 0 .24-.1.24-.23v-8.81a.24.24 0 00-.25-.24z" fill="#f3d55c"/>
      <path d="M15.22 24.99h-1.4a2.14 2.1 0 01-2.14-2.09V14.1a2.14 2.1 0 012.13-2.1h7.1a2.14 2.1 0 012.12 2.1v1.38a2.14 2.1 0 01-2.13 2.1h-3.3a.24.24 0 00-.24.24v5.08a2.14 2.1 0 01-2.14 2.1m-1.4-11.14a.24.24 0 00-.25.24v8.81c0 .13.1.23.24.23h1.42c.13 0 .24-.1.24-.24v-5.1a2.14 2.1 0 012.13-2.08h3.3c.14 0 .24-.1.24-.24V14.1a.24.24 0 00-.24-.25z" fill="#f3d55c"/>
      <path d="M22.09 21.28h-5.68a.95.93 0 110-1.86h5.68a.95.93 0 110 1.86m-9.46-3.7H6.95a.95.93 0 110-1.87h5.68a.95.93 0 110 1.86m0 3.71H6.95a.95.93 0 110-1.86h5.68a.95.93 0 110 1.86" fill="#f3d55c"/>
    </g>
  </g>
</svg>
