<svg xmlns="http://www.w3.org/2000/svg" viewBox="0 0 64 64" width="64" height="64">
  <circle fill="#fff" cx="32" cy="32" r="30" stroke="#666" stroke-width="4"/>
	<path transform="translate(-10 -10) scale(1.33)" fill="#1d83d4" stroke-width="4" stroke="#fff"
	 d="M31.7 49.6c-9.5 0-17.3-7.7-17.3-17.2S22 15.1 31.6 15.1c4 0 7.8 1.3 10.8 3.8l-8.5 7.5 22.6 3.2v-23l-8 6.9C38.2 4.2 22.2 5.1 13 15.4s-8.5 26.3 1.9 35.5 26.3 8.5 35.6-1.9c2.1-2.4 3.9-5.3 5-8.3l-8.1-1.1c-2.9 6.1-9 10-15.7 10z"/>
  <path fill="#888" d="M31.2 9.6h3.6V18h-3.6zm0 26.4h3.6v19.2h-3.6zM24 9.6h4.8V18H24zM24 36h4.8v19.2H24z"/>
  <path fill="#d86600" d="M42.66 42.95c-1.63-6.53-8.43-5.85-9.51-10.25-.77-3.1 1.32-5.48 4.43-6.27a5.82 5.82 0 015.74 1.76l.03.03.13.16.08.1.08.14.02.02c.3.37.45.63.69.58.2-.05.31-.52.37-.87a12.36 12.36 0 00-15.29-13.54 12.49 12.49 0 00-9.04 15.04C22.6 38.8 31 40.3 35.55 42.55a3.69 3.69 0 01-.72 6.94h-.05l-.18.05c-.4.1-.5.05-.5.2 0 .11.26.25.42.33a6.06 6.06 0 008.14-7.12z"/>


</svg>
