<svg
	version="1.1"
	xmlns="http://www.w3.org/2000/svg"
	xmlns:xlink="http://www.w3.org/1999/xlink"
	width="468"
	height="468"
 	viewBox="45 30 380 380">
	<path fill="#EBF0F3" d="M0,302.201v37.463c0,17.242,13.978,31.22,31.22,31.22h405.854c17.242,0,31.22-13.978,31.22-31.22 v-37.463H0z"/>
	<path fill="#D5D6DB" d="M315.902,415.402h0.688l-20.479-44.518h-123.93l-20.479,44.518h0.688 c-13.147,0-23.805,10.658-23.805,23.805h211.122C339.707,426.06,329.05,415.402,315.902,415.402z"/>
	<path fill="#64798A" d="M468.293,60.305c0-17.242-13.978-31.22-31.22-31.22H31.22C13.978,29.085,0,43.063,0,60.305v241.896 h468.293V60.305z"/>
	<path fill="#D5D6DB" d="M18.733,283.47V60.305c0-6.884,5.601-12.488,12.488-12.488h405.854 c6.887,0,12.488,5.604,12.488,12.488V283.47H18.733z"/>
	<g>
		<circle fill="#64798A;" cx="186.518" cy="336.546" r="14.811"/>
		<circle fill="#64798A;" cx="234.146" cy="336.546" r="14.811"/>
		<circle fill="#64798A;" cx="281.775" cy="336.546" r="14.811"/>
	</g>
	<path fill="#D15241" d="M226.322,66.061l-88.813,59.567c-6.972,4.676-2.034,12.672,7.826,12.672H322.96 c9.86,0,14.798-7.996,7.826-12.672l-88.812-59.567C237.652,63.162,230.644,63.162,226.322,66.061z"/>
	<g>
		<rect x="169.822" y="138.302" fill="#E56353" width="27.067" height="93.721"/>
		<rect x="220.616" y="138.302" fill="#E56353" width="27.067" height="93.721"/>
		<rect x="271.404" y="138.302" fill="#E56353" width="27.067" height="93.721"/>
		<g fill="#E56353" transform="translate(100 -30) scale(2.75)" stroke-width="0.35px" stroke="#E56353">
			<path d="m43 49c.0021403-2.2729027 1.1076967-4.4032711 2.9649936-5.7134388s4.2350896-1.6370108 6.3770064-.8765612c.5081613.1962197.7657941.7630642.5794616 1.2749336-.1863324.5118694-.7480765.7804416-1.2634616.6040664-2.0728055-.7370999-4.3838636-.032762-5.6932301 1.7351177-1.3093664 1.7678797-1.3093664 4.1838849 0 5.9517646 1.3093665 1.7678797 3.6204246 2.4722176 5.6932301 1.7351177.5153851-.1763752 1.0771292.092197 1.2634616.6040664.1863325.5118694-.0713003 1.0787139-.5794616 1.2749336-2.1419168.7604496-4.5197095.4336065-6.3770064-.8765612s-2.9628533-3.4405361-2.9649936-5.7134388z"/>
			<path d="m48 48h-5c-.5522847 0-1-.4477153-1-1s.4477153-1.3 2.7-1h5c.5522847 0 1 .4477153 1 1s-.4477153 1-1 1z"/>
			<path d="m48 52h-5c-.5522847 0-1-.4477153-1-1s.4477153-1 1-1h5c.5522847 0 1 .4477153 1 1s-.4477153 1-1 1z"/>
		</g>
		<path fill="#E56353" d="M140.49,247.355h187.315c3.448,0,6.244,2.796,6.244,6.244V267.4H134.246v-13.801 C134.246,250.15,137.041,247.355,140.49,247.355z"/>
	</g>
	<path fill="#D15241" d="M161.558,232.023h145.18c6.897,0,12.488,5.591,12.488,12.488v2.844H149.07v-2.844 C149.07,237.614,154.661,232.023,161.558,232.023z"/>
</svg>
