<svg xmlns="http://www.w3.org/2000/svg" viewBox="0 0 64 64" width="64" height="64">
  <style>
    .st1{fill:#ddd}.st3{fill:#f0c41b}.st5{fill:#f3d55c}
  </style>
  <g id="card2">
    <path d="M56.4 56.9H7.6c-1.7 0-3-1.4-3-3V20.2c0-1.7 1.4-3 3-3h48.8c1.7 0 3 1.4 3 3v33.7c0 1.6-1.3 3-3 3" fill="#888" transform="translate(0 -5)"/>
    <path class="st1" d="M18.7 43.6h-8.5c-.5 0-.9.4-.9.9s.4.9.9.9h8.5c.5 0 .9-.4.9-.9.1-.5-.3-.9-.9-.9M32 44.6c0-.5-.4-.9-.9-.9h-8.5c-.5 0-.9.4-.9.9s.4.9.9.9h8.5c.5 0 .9-.4.9-.9M11.2 48.4h-.9c-.5 0-.9.4-.9.9s.4.9.9.9h.9c.5 0 .9-.4.9-.9s-.4-.9-.9-.9M16.9 48.4H15c-.5 0-.9.4-.9.9s.4.9.9.9h1.9c.5 0 .9-.4.9-.9s-.4-.9-.9-.9M21.6 48.4h-.9c-.5 0-.9.4-.9.9s.4.9.9.9h.9c.5 0 .9-.4.9-.9s-.4-.9-.9-.9M27.3 48.4h-1.9c-.5 0-.9.4-.9.9s.4.9.9.9h1.9c.5 0 .9-.4.9-.9s-.4-.9-.9-.9M30.4 48.6c-.2.2-.3.4-.3.7 0 .2.1.5.3.7.2.2.4.3.7.3.2 0 .5-.1.7-.3.2-.2.3-.4.3-.7 0-.2-.1-.5-.3-.7-.4-.3-1.1-.3-1.4 0" transform="translate(0 -5)"/>
    <path d="M48.1 46.5c0 3.1-2.5 5.7-5.7 5.7s-5.7-2.5-5.7-5.7 2.5-5.7 5.7-5.7 5.7 2.5 5.7 5.7" fill="#e74c3d" transform="translate(0 -5)"/>
    <path class="st3" d="M54.7 46.5c0 3.1-2.5 5.7-5.7 5.7s-5.7-2.5-5.7-5.7 2.5-5.7 5.7-5.7 5.7 2.5 5.7 5.7" transform="translate(0 -5)"/>
    <g opacity=".8">
      <path class="st3" d="M24.2 36.1H11.4c-.7 0-1.2-.5-1.2-1.2v-9c0-.7.5-1.2 1.2-1.2h12.8c.7 0 1.2.5 1.2 1.2v9c0 .6-.6 1.2-1.2 1.2" transform="translate(0 -5)"/>
      <path class="st5" d="M24.2 37H11.4c-1.2 0-2.1-1-2.1-2.1v-9c0-1.2 1-2.1 2.1-2.1h12.8c1.2 0 2.1 1 2.1 2.1v9c0 1.1-.9 2.1-2.1 2.1M11.4 25.6c-.1 0-.2.1-.2.2v9c0 .1.1.2.2.2h12.8c.1 0 .2-.1.2-.2v-9c0-.1-.1-.2-.2-.2H11.4z" transform="translate(0 -5)"/>
      <path class="st3" d="M25.4 25.9c0-.7-.5-1.2-1.2-1.2h-7.1c-.7 0-1.2.5-1.2 1.2v9c0 .7.5 1.2 1.2 1.2h1.4c.7 0 1.2-.5 1.2-1.2v-5.2c0-.7.5-1.2 1.2-1.2h3.3c.7 0 1.2-.5 1.2-1.2v-1.4z" transform="translate(0 -5)"/>
      <path class="st5" d="M18.5 37h-1.4c-1.2 0-2.1-1-2.1-2.1v-9c0-1.2 1-2.1 2.1-2.1h7.1c1.2 0 2.1 1 2.1 2.1v1.4c0 1.2-1 2.1-2.1 2.1h-3.3c-.1 0-.2.1-.2.2v5.2c-.1 1.2-1 2.2-2.2 2.2m-1.4-11.4c-.1 0-.2.1-.2.2v9c0 .1.1.2.2.2h1.4c.1 0 .2-.1.2-.2v-5.2c0-1.2 1-2.1 2.1-2.1h3.3c.1 0 .2-.1.2-.2v-1.4c0-.1-.1-.2-.2-.2l-7-.1z" transform="translate(0 -5)"/>
      <path class="st3" d="M19.7 32.3h5.7" transform="translate(0 -5)"/>
      <path class="st5" d="M25.4 33.2h-5.7c-.5 0-.9-.4-.9-.9s.4-.9.9-.9h5.7c.5 0 .9.4.9.9s-.4.9-.9.9" transform="translate(0 -5)"/>
      <path class="st3" d="M15.9 28.5h-5.7" transform="translate(0 -5)"/>
      <path class="st5" d="M15.9 29.4h-5.7c-.5 0-.9-.4-.9-.9s.4-.9.9-.9h5.7c.5 0 .9.4.9.9s-.4.9-.9.9" transform="translate(0 -5)"/>
      <path class="st3" d="M15.9 32.3h-5.7" transform="translate(0 -5)"/>
      <path class="st5" d="M15.9 33.2h-5.7c-.5 0-.9-.4-.9-.9s.4-.9.9-.9h5.7c.5 0 .9.4.9.9.1.5-.4.9-.9.9" transform="translate(0 -5)"/>
    </g>
  </g>
</svg>
