<svg xmlns="http://www.w3.org/2000/svg" viewBox="0 0 64 64" width="64" height="64">
  <path d="M56.4 51.9H7.6a3 3 0 01-3-3V15.2a3 3 0 013-3h48.8a3 3 0 013 3v33.7a3 3 0 01-3 3" fill="#888"/>
  <path fill="#ddd" d="M18.7 38.6h-8.5c-.5 0-.9.4-.9.9s.4.9.9.9h8.5c.5 0 .9-.4.9-.9.1-.5-.3-.9-.9-.9m13.3 1c0-.5-.4-.9-.9-.9h-8.5c-.5 0-.9.4-.9.9s.4.9.9.9h8.5c.5 0 .9-.4.9-.9m-20.8 3.8h-.9c-.5 0-.9.4-.9.9s.4.9.9.9h.9c.5 0 .9-.4.9-.9s-.4-.9-.9-.9m5.7 0H15c-.5 0-.9.4-.9.9s.4.9.9.9h1.9c.5 0 .9-.4.9-.9s-.4-.9-.9-.9m4.7 0h-.9c-.5 0-.9.4-.9.9s.4.9.9.9h.9c.5 0 .9-.4.9-.9s-.4-.9-.9-.9m5.7 0h-1.9c-.5 0-.9.4-.9.9s.4.9.9.9h1.9c.5 0 .9-.4.9-.9s-.4-.9-.9-.9m3.1.2c-.2.2-.3.4-.3.7 0 .2.1.5.3.7.2.2.4.3.7.3.2 0 .5-.1.7-.3.2-.2.3-.4.3-.7 0-.2-.1-.5-.3-.7-.4-.3-1.1-.3-1.4 0"/>
  <path d="M48.1 41.5c0 3.1-2.5 5.7-5.7 5.7s-5.7-2.5-5.7-5.7 2.5-5.7 5.7-5.7 5.7 2.5 5.7 5.7" fill="#e74c3d"/>
  <path fill="#f0c41b" d="M54.7 41.5c0 3.1-2.5 5.7-5.7 5.7s-5.7-2.5-5.7-5.7 2.5-5.7 5.7-5.7 5.7 2.5 5.7 5.7"/>
  <g opacity=".8">
    <path fill="#f0c41b" d="M24.2 31.1H11.4c-.7 0-1.2-.5-1.2-1.2v-9c0-.7.5-1.2 1.2-1.2h12.8c.7 0 1.2.5 1.2 1.2v9c0 .6-.6 1.2-1.2 1.2"/>
    <path fill="#f3d55c" d="M24.2 32H11.4c-1.2 0-2.1-1-2.1-2.1v-9c0-1.2 1-2.1 2.1-2.1h12.8c1.2 0 2.1 1 2.1 2.1v9c0 1.1-.9 2.1-2.1 2.1M11.4 20.6c-.1 0-.2.1-.2.2v9c0 .1.1.2.2.2h12.8c.1 0 .2-.1.2-.2v-9c0-.1-.1-.2-.2-.2H11.4z"/>
    <path fill="#f0c41b" d="M25.4 20.9c0-.7-.5-1.2-1.2-1.2h-7.1c-.7 0-1.2.5-1.2 1.2v9c0 .7.5 1.2 1.2 1.2h1.4c.7 0 1.2-.5 1.2-1.2v-5.2c0-.7.5-1.2 1.2-1.2h3.3c.7 0 1.2-.5 1.2-1.2v-1.4z"/>
    <path fill="#f3d55c" d="M18.5 32h-1.4c-1.2 0-2.1-1-2.1-2.1v-9c0-1.2 1-2.1 2.1-2.1h7.1c1.2 0 2.1 1 2.1 2.1v1.4c0 1.2-1 2.1-2.1 2.1h-3.3c-.1 0-.2.1-.2.2v5.2c-.1 1.2-1 2.2-2.2 2.2m-1.4-11.4c-.1 0-.2.1-.2.2v9c0 .1.1.2.2.2h1.4c.1 0 .2-.1.2-.2v-5.2c0-1.2 1-2.1 2.1-2.1h3.3c.1 0 .2-.1.2-.2v-1.4c0-.1-.1-.2-.2-.2l-7-.1z"/>
    <path fill="#f0c41b" d="M19.7 27.3h5.7"/>
    <path fill="#f3d55c" d="M25.4 28.2h-5.7c-.5 0-.9-.4-.9-.9s.4-.9.9-.9h5.7c.5 0 .9.4.9.9s-.4.9-.9.9"/>
    <path fill="#f0c41b" d="M15.9 23.5h-5.7"/>
    <path fill="#f3d55c" d="M15.9 24.4h-5.7c-.5 0-.9-.4-.9-.9s.4-.9.9-.9h5.7c.5 0 .9.4.9.9s-.4.9-.9.9"/>
    <path fill="#f0c41b" d="M15.9 27.3h-5.7"/>
    <path fill="#f3d55c" d="M15.9 28.2h-5.7c-.5 0-.9-.4-.9-.9s.4-.9.9-.9h5.7c.5 0 .9.4.9.9.1.5-.4.9-.9.9"/>
  </g>
</svg>
