<svg xmlns="http://www.w3.org/2000/svg" height="64" width="64" viewBox="-1 -1 18 18">
	<path d="M10.574 0v1.607h2.682L9 5.863 10.137 7l4.256-4.256v2.682H16V0h-5.426zm-4.71 9l-4.257 4.256v-2.682H0V16h5.426v-1.607H2.744L7 10.137 5.863 9z"
		fill="#595959" stroke-width="2" stroke="#fff"/>
	<path d="M10.574 0v1.607h2.682L9 5.863 10.137 7l4.256-4.256v2.682H16V0h-5.426zm-4.71 9l-4.257 4.256v-2.682H0V16h5.426v-1.607H2.744L7 10.137 5.863 9z"
		fill="#595959"/>
	<path transform="rotate(90,8,8)" d="M10.574 0v1.607h2.682L9 5.863 10.137 7l4.256-4.256v2.682H16V0h-5.426zm-4.71 9l-4.257 4.256v-2.682H0V16h5.426v-1.607H2.744L7 10.137 5.863 9z"
		fill="#595959" stroke-width="2" stroke="#fff"/>
	<path transform="rotate(90,8,8)" d="M10.574 0v1.607h2.682L9 5.863 10.137 7l4.256-4.256v2.682H16V0h-5.426zm-4.71 9l-4.257 4.256v-2.682H0V16h5.426v-1.607H2.744L7 10.137 5.863 9z"
		fill="#595959"/>
</svg>
