<svg xmlns="http://www.w3.org/2000/svg" viewBox="0 0 64 64" width="64" height="64">
  <circle fill="#fff" cx="32" cy="32" r="28.3" />
  <path fill="#666" d="M52.9 40.8c4.9-11.5-.6-24.8-12.1-29.7-6.5-2.7-13.9-2.3-20 1.2L18 7.4c8.8-5 19.5-5 28.2.1 12.7 7.3 17.6 23.1 11.7 36.2l3.8 2.2-11.8 6.3-.5-13.4 3.5 2zM11.1 23.2c-4.9 11.5.6 24.8 12.1 29.7 6.5 2.7 13.9 2.3 20-1.2l2.8 4.9c-8.8 5-19.5 5-28.2-.1C5.1 49.2.2 33.5 6.2 20.4l-3.8-2.2 11.8-6.3.5 13.4-3.6-2.1z"/>
  <path fill="#1d83d4" d="M36 40l-8-8-8 8-4-4 12-12 8 8 8-8 4 4-12 12z" />
</svg>
