<svg xmlns="http://www.w3.org/2000/svg" viewBox="0 0 64 64" width="64" height="64">
  <circle fill="#fff" cx="32" cy="32" r="30" stroke="#666" stroke-width="4"/>
  <g transform="scale(1.2) translate(-5 -5)">
    <path fill="#888" d="M31 13h3v7h-3zM31 35h3v16h-3z"/>
    <path fill="#888" d="M25 13h4v7h-4zM25 35h4v16h-4z"/>
    <path fill="#d86600" d="M40.5 40.7c-1.4-5.4-7-4.9-7.9-8.5-.6-2.6 1.1-4.6 3.7-5.2 1.7-.4 3.6.1 4.8 1.5l.1.1.1.1.1.1c.2.3.4.5.6.5.2 0 .3-.4.3-.7.9-7.2-5.7-13-12.7-11.3-5.5 1.4-8.9 7-7.5 12.5 1.8 7.4 8.8 8.7 12.6 10.6 2.1 1 2.4 3.9.5 5.3-.3.2-.7.4-1 .5H34c-.3.1-.4 0-.4.2 0 .1.2.2.4.3 3.6 1.5 7.4-1.5 6.9-5.4-.3-.2-.3-.4-.4-.6z"/>
  </g>
</svg>
