<svg height="512"
		 width="512"
		 viewBox="0 0 58 58"
		 xmlns="http://www.w3.org/2000/svg">
	<g>
		<rect fill="#ccc" height="58" rx="8" width="58"/>
		<path d="m47.83 0h-37.66c-3.96 0-7.17 3.58-7.17 8v42c0 4.42 3.21 8 7.17 8h37.66c4 0 7.17-3.58 7.17-8v-42c0-4.42-3.21-8-7.17-8z"
					fill="#ddd"/>
		<g transform="translate(-100 -109) scale(2.5 2.8)" fill="#e64c3c" stroke-width="0.45px" stroke="#e64c3c">
			<path d="m43 49c.0021403-2.2729027 1.1076967-4.4032711 2.9649936-5.7134388s4.2350896-1.6370108 6.3770064-.8765612c.5081613.1962197.7657941.7630642.5794616 1.2749336-.1863324.5118694-.7480765.7804416-1.2634616.6040664-2.0728055-.7370999-4.3838636-.032762-5.6932301 1.7351177-1.3093664 1.7678797-1.3093664 4.1838849 0 5.9517646 1.3093665 1.7678797 3.6204246 2.4722176 5.6932301 1.7351177.5153851-.1763752 1.0771292.092197 1.2634616.6040664.1863325.5118694-.0713003 1.0787139-.5794616 1.2749336-2.1419168.7604496-4.5197095.4336065-6.3770064-.8765612s-2.9628533-3.4405361-2.9649936-5.7134388z"/>
			<path d="m48 48h-5c-.5522847 0-1-.4477153-1-1s.4477153-1.3 2.7-1h5c.5522847 0 1 .4477153 1 1s-.4477153 1-1 1z"/>
			<path d="m48 52h-5c-.5522847 0-1-.4477153-1-1s.4477153-1 1-1h5c.5522847 0 1 .4477153 1 1s-.4477153 1-1 1z"/>
		</g>
		<g transform="translate(0 5)" fill="#000">
			<rect height="6" rx=".5" width="10" x="38" y="8"/>
			<path d="m48 28.5v-10c0-.2761424-.2238576-.5-.5-.5h-9c-.2761424 0-.5.2238576-.5.5v10c0 .2761424-.2238576.5-.5.5h-4.36c-.1994274-.001358-.3805901.1159255-.4609819.2984366-.0803917.182511-.0446365.3953417.0909819.5415634l9.86 10.76c.0962996.1015128.230077.1590014.37.1590014s.2737004-.0574886.37-.1590014l9.86-10.76c.1356184-.1462217.1713736-.3590524.0909819-.5415634-.0803918-.1825111-.2615545-.2997946-.4609819-.2984366h-4.36c-.2761424 0-.5-.2238576-.5-.5z"/>
		</g>
	</g>
</svg>