<svg xmlns="http://www.w3.org/2000/svg" viewBox="0 0 64 64" width="64" height="64">
  <circle fill="#fff" cx="32" cy="32" r="28.3" />
  <path fill="#666" d="M32 60.3C16.4 60.3 3.7 47.6 3.7 32S16.4 3.7 32 3.7 60.3 16.4 60.3 32 47.6 60.3 32 60.3zm0-5.6c12.5 0 22.7-10.1 22.7-22.7S44.5 9.3 32 9.3 9.3 19.5 9.3 32 19.5 54.7 32 54.7z" />
  <path fill="#1d83d4" d="M31 13h3v7h-3zM31 35h3v16h-3z"/>
  <path fill="#1d83d4" d="M26.1 13h3v7h-3zM26.1 35h3v16h-3z"/>
  <path fill="#1d83d4" d="M40.5 40.7c-1.4-5.4-7-4.9-7.9-8.5-.6-2.6 1.1-4.6 3.7-5.2 1.7-.4 3.6.1 4.8 1.5l.1.1.1.1.1.1c.2.3.4.5.6.5.2 0 .3-.4.3-.7.9-7.2-5.7-13-12.7-11.3-5.5 1.4-8.9 7-7.5 12.5 1.8 7.4 8.8 8.7 12.6 10.6 2.1 1 2.4 3.9.5 5.3-.3.2-.7.4-1 .5H34c-.3.1-.4 0-.4.2 0 .1.2.2.4.3 3.6 1.5 7.4-1.5 6.9-5.4-.3-.2-.3-.4-.4-.6z"/>
</svg>
