<svg xmlns="http://www.w3.org/2000/svg" 
		 xmlns:xlink="http://www.w3.org/1999/xlink"
		 width="58"
		 height="35"
		 viewBox="41.98 10.5 512 308.96">
	<defs>
		<clipPath id="clip-path">
			<rect fill="none" x="41.98" y="0" width="512" height="330"/>
		</clipPath>
	</defs>
	<rect fill="#242c8e" x="41.98" width="512" height="330"/>
	<g clip-path="url(#clip-path)">
		<circle fill="#fac903" cx="303.27" cy="172.21" r="104.29"/>
		<ellipse fill="#e03300" cx="304.98" cy="205.04" rx="304.98" ry="75.54"/>
		<ellipse fill="#fac903" cx="304.98" cy="231.04" rx="304.98" ry="75.54"/>
		<rect fill="#fac903" x="32.48" y="242.75" width="529.5" height="97.25"/>
	</g>
	<path fill="#242c8e"
				d="M439.37,343.92l36.26,40.55H459.24l-9.69-10.84h-33l-10.15,10.84H393.48l37.68-40.55Zm-18.27,23h23.26L432.9,354.11Z"
				transform="translate(-292.02 -127)"/>
	<path fill="#242c8e"
				d="M499.56,354.47v21.15c0,.59,1.06,1.38,2.19,2a26.53,26.53,0,0,0,3.67,1.17c1.16.36,2.36.55,3.39.77a10.89,10.89,0,0,0,2.69.15,13.31,13.31,0,0,0,2.58-.25,19.48,19.48,0,0,0,2.73-.63c.86-.33,2.93-.75,3.77-1.2s2.41-.79,4-1.43V354.47h15.67v30H524.57v-2.78A57.2,57.2,0,0,1,516,384a51.91,51.91,0,0,1-9.53,1,41.56,41.56,0,0,1-8.1-.75,32.94,32.94,0,0,1-6.87-1.86,17.5,17.5,0,0,1-5-3.08c-1.06-1.14-2.61-2.42-2.61-3.71V354.47Z"
				transform="translate(-292.02 -127)"/>
	<path fill="#242c8e"
				d="M595.11,360.77q-1.2-.53-2.19-.91a16.36,16.36,0,0,0-2-.62,14.72,14.72,0,0,0-2-.34q-1.06-.1-2.37-.1a20.89,20.89,0,0,0-3.59.31,20.56,20.56,0,0,0-3.31.85,16,16,0,0,0-2.76,1.26,7.18,7.18,0,0,0-1.91,1.54v21.71H557.32V353.94l12.37-.09,5.3,2.93a29.79,29.79,0,0,1,6.47-2.49,29.34,29.34,0,0,1,7.5-.94,27.27,27.27,0,0,1,6.9.81,39.43,39.43,0,0,1,5.36,1.77Z"
				transform="translate(-292.02 -127)"/>
	<path fill="#242c8e"
				d="M635.48,385a66.08,66.08,0,0,1-12.86-1.17,43.41,43.41,0,0,1-10.2-3.22,20.49,20.49,0,0,1-6.73-4.82,8.93,8.93,0,0,1-2.42-6,9.75,9.75,0,0,1,2.42-6.37,20.11,20.11,0,0,1,6.7-5,41.52,41.52,0,0,1,10.18-3.3,65.25,65.25,0,0,1,12.86-1.19,67.31,67.31,0,0,1,12.88,1.16,44,44,0,0,1,10.23,3.18,20.76,20.76,0,0,1,6.76,4.76,8.71,8.71,0,0,1,2.45,5.9,9.63,9.63,0,0,1-2.42,6.24,20.74,20.74,0,0,1-6.73,5.11,42.3,42.3,0,0,1-10.23,3.46A61.31,61.31,0,0,1,635.48,385Zm2.05-3.66a12.05,12.05,0,0,0,4.45-.81,11.58,11.58,0,0,0,3.56-2.17,9.7,9.7,0,0,0,2.34-3.15,8.78,8.78,0,0,0,.83-3.72,17.35,17.35,0,0,0-.83-5.41,11.16,11.16,0,0,0-2.71-4.44,13.2,13.2,0,0,0-4.87-3,21.12,21.12,0,0,0-7.33-1.11,10.61,10.61,0,0,0-4,.79,11.65,11.65,0,0,0-3.42,2.12,10.48,10.48,0,0,0-2.37,3.08,8,8,0,0,0-.88,3.68,14.31,14.31,0,0,0,1.05,5.48,13.18,13.18,0,0,0,3,4.5,14.42,14.42,0,0,0,4.79,3A17.16,17.16,0,0,0,637.53,381.36Z"
				transform="translate(-292.02 -127)"/>
	<path fill="#242c8e"
				d="M719.16,360.77q-1.2-.53-2.19-.91a16.36,16.36,0,0,0-2-.62,14.72,14.72,0,0,0-2-.34q-1.06-.1-2.37-.1a20.89,20.89,0,0,0-3.59.31,20.56,20.56,0,0,0-3.31.85,16,16,0,0,0-2.76,1.26,7.18,7.18,0,0,0-1.91,1.54v21.71H681.37V353.94l12.37-.09,5.3,2.93a29.79,29.79,0,0,1,6.47-2.49,29.34,29.34,0,0,1,7.5-.94,27.27,27.27,0,0,1,6.9.81,39.43,39.43,0,0,1,5.36,1.77Z"
				transform="translate(-292.02 -127)"/>
	<path fill="#242c8e"
				d="M757.3,385.14A55.08,55.08,0,0,1,745.61,384a41,41,0,0,1-9.52-3.19,20.88,20.88,0,0,1-6.41-4.66,8.33,8.33,0,0,1-2.37-5.61,11.08,11.08,0,0,1,2.17-6.58,18.41,18.41,0,0,1,6.16-5.26,35.49,35.49,0,0,1,9.55-3.47,56.85,56.85,0,0,1,12.4-1.25,58.16,58.16,0,0,1,11.17,1,36.61,36.61,0,0,1,8.69,2.72,16.69,16.69,0,0,1,5.62,4.07,10.29,10.29,0,0,1,2,6H744.64c.15,1.66.64,2.24,1.45,3.75a13.6,13.6,0,0,0,3.28,4,16,16,0,0,0,4.82,2.72,17.73,17.73,0,0,0,6.13,1,40.26,40.26,0,0,0,5.35-.2,34.85,34.85,0,0,0,4-.6,12.05,12.05,0,0,0,3.17-.87,33.92,33.92,0,0,0,3.49-1.87l8.72.34a25.25,25.25,0,0,1-4.93,4.29c-2,1.43-2.73,1.63-5.51,2.4a58.3,58.3,0,0,1-7.38,1.78A59.69,59.69,0,0,1,757.3,385.14Zm12.47-21.5a5.23,5.23,0,0,0-1.11-2.42,8,8,0,0,0-2.25-1.89,11.61,11.61,0,0,0-3.19-1.22c-1.22-.28-7.53-.42-8.93-.42a12.59,12.59,0,0,0-3.25.42,11,11,0,0,0-2.88,1.2,8.19,8.19,0,0,0-2.17,1.88,5.75,5.75,0,0,0-1.17,2.45Z"
				transform="translate(-292.02 -127)"/>
</svg>