<svg version="1.1"
		 xmlns="http://www.w3.org/2000/svg" xmlns:xlink="http://www.w3.org/1999/xlink"
		 width="58"
		 height="35"
		 viewBox="0 0 58 35"
		 >
<style type="text/css">
	.st0{fill:#FFFFFF;}
	.st1{fill:#004E91;}
	.st2{fill:#FFDD00;}
	.st3{fill:none;}
</style>
<g>
	<g>
		<path class="st0" d="M58,32c0,1.7-1.6,3-3.5,3h-51C1.6,35,0,33.6,0,32V3c0-1.7,1.6-3,3.5-3h50.9C56.4,0,58,1.4,58,3L58,32L58,32z"
			/>
	</g>
	<g>
		<path class="st1" d="M44,9.8h-1.8h-8.3h-1.8l-1.2,1.4L27,15.6l0,0l-1.2,1.4H24h-8.1h-1.8l1.2-1.4l0.6-0.7l1.2-1.4h-1.8h-2.3h-1.3
			c-1,0-1.8,0.8-1.8,1.8l0,0v3.6v0.3c0,1,0.8,1.8,1.8,1.8h0.5H31h1.4c1,0,2.3-0.6,3-1.4l3.1-3.6L44,9.8z"/>
		<path class="st2" d="M46.4,5.6c1,0,1.8,0.8,1.8,1.8v3.9c0,1-0.8,1.8-1.8,1.8h-1h-2.6H41l1.2-1.4l0,0l0.6-0.7L44,9.8H32.1l-6.3,7.1
			H14l8.5-9.6L22.8,7c0.7-0.7,2-1.4,3-1.4h0.4L46.4,5.6L46.4,5.6z"/>
	</g>
	<path class="st1" d="M48.2,29.2v-0.6c0-0.1,0-0.1-0.2-0.1h-0.4c-0.1,0-0.2,0-0.2-0.1c0,0,0-0.1,0-0.3v-2.1H48c0,0,0.1,0,0.1,0
		c0,0,0-0.1,0-0.1v-0.6c0,0,0-0.1,0-0.1c0,0-0.1,0-0.1,0h-0.6v-0.8c0,0,0-0.1,0-0.1c0,0-0.1,0-0.1,0h0l-0.9,0.2c0,0-0.1,0-0.1,0
		c0,0,0,0.1,0,0.1v0.6h-0.6c0,0-0.1,0-0.1,0c0,0,0,0.1,0,0.1v0.5c0,0,0,0.1,0,0.1c0,0,0.1,0,0.1,0.1l0.6,0.1v2.1
		c0,0.3,0,0.5,0.1,0.6c0.1,0.2,0.1,0.3,0.2,0.4c0.1,0.1,0.2,0.2,0.4,0.2s0.3,0,0.5,0c0.1,0,0.2,0,0.3,0c0.1,0,0.2,0,0.3,0
		C48.2,29.3,48.2,29.3,48.2,29.2 M45,29.1v-0.7c0,0,0-0.1,0-0.1c0,0-0.1,0-0.1,0h0c-0.1,0-0.3,0-0.4,0c-0.1,0-0.3,0-0.5,0
		c-0.1,0-0.2,0-0.2,0c-0.1,0-0.1-0.1-0.2-0.1c-0.1-0.1-0.1-0.2-0.1-0.3c0-0.1,0-0.2,0-0.4V27c0-0.2,0-0.3,0-0.4
		c0-0.1,0.1-0.2,0.1-0.3c0.1-0.1,0.1-0.1,0.2-0.1c0.1,0,0.2,0,0.2,0c0.2,0,0.4,0,0.5,0c0.1,0,0.3,0,0.4,0h0c0,0,0.1,0,0.1,0
		c0,0,0,0,0-0.1v-0.7c0-0.1,0-0.1,0-0.1c0,0-0.1,0-0.1-0.1c-0.1,0-0.2,0-0.4-0.1c-0.2,0-0.3,0-0.6,0c-0.5,0-0.9,0.2-1.2,0.5
		c-0.3,0.3-0.5,0.8-0.5,1.4v0.6c0,0.6,0.2,1.1,0.5,1.4c0.3,0.3,0.7,0.5,1.2,0.5c0.2,0,0.4,0,0.6,0c0.2,0,0.3,0,0.4-0.1
		c0.1,0,0.1,0,0.1-0.1C45,29.2,45,29.2,45,29.1 M40.3,28.4c-0.1,0-0.2,0.1-0.3,0.1c-0.1,0-0.2,0-0.3,0c-0.2,0-0.3,0-0.3-0.1
		s-0.1-0.1-0.1-0.3v-0.1c0-0.1,0-0.2,0-0.2c0-0.1,0.1-0.1,0.1-0.2c0,0,0.1-0.1,0.2-0.1c0.1,0,0.2,0,0.3,0h0.4V28.4z M41.4,26.6
		c0-0.3,0-0.5-0.1-0.7c-0.1-0.2-0.2-0.3-0.3-0.5c-0.2-0.1-0.3-0.2-0.5-0.3c-0.2-0.1-0.5-0.1-0.7-0.1c-0.2,0-0.5,0-0.7,0
		c-0.2,0-0.4,0.1-0.5,0.1c-0.1,0-0.1,0.1-0.1,0.2V26c0,0,0,0.1,0,0.1c0,0,0.1,0,0.1,0h0c0.1,0,0.1,0,0.2,0c0.1,0,0.2,0,0.3,0
		c0.1,0,0.2,0,0.3,0s0.2,0,0.3,0c0.2,0,0.3,0,0.4,0.1c0.1,0.1,0.2,0.2,0.2,0.4v0.3h-0.4c-0.6,0-1.1,0.1-1.4,0.3
		c-0.3,0.2-0.4,0.5-0.4,0.9v0.1c0,0.2,0,0.4,0.1,0.6c0.1,0.2,0.2,0.3,0.3,0.4c0.1,0.1,0.2,0.2,0.4,0.2c0.2,0,0.3,0.1,0.5,0.1
		c0.2,0,0.4,0,0.6-0.1s0.3-0.1,0.5-0.2v0.1c0,0,0,0.1,0,0.1c0,0,0.1,0,0.1,0h0.8c0,0,0.1,0,0.1,0c0,0,0-0.1,0-0.1L41.4,26.6
		L41.4,26.6z M37.5,29.2v-0.6c0-0.1,0-0.1-0.2-0.1H37c-0.1,0-0.2,0-0.2-0.1c0,0,0-0.1,0-0.3v-2.1h0.6c0,0,0.1,0,0.1,0
		c0,0,0-0.1,0-0.1v-0.6c0,0,0-0.1,0-0.1s-0.1,0-0.1,0h-0.6v-0.8c0,0,0-0.1,0-0.1c0,0-0.1,0-0.1,0h0l-0.9,0.2c0,0-0.1,0-0.1,0
		c0,0,0,0.1,0,0.1v0.6h-0.6c0,0-0.1,0-0.1,0c0,0,0,0.1,0,0.1v0.5c0,0,0,0.1,0,0.1c0,0,0.1,0,0.1,0.1l0.6,0.1v2.1
		c0,0.3,0,0.5,0.1,0.6c0.1,0.2,0.1,0.3,0.2,0.4c0.1,0.1,0.2,0.2,0.4,0.2s0.3,0,0.5,0c0.1,0,0.2,0,0.3,0c0.1,0,0.2,0,0.3,0
		C37.5,29.3,37.5,29.3,37.5,29.2 M34.4,29.2v-2.4c0-0.2,0-0.4-0.1-0.7c0-0.2-0.1-0.4-0.2-0.5c-0.1-0.2-0.2-0.3-0.4-0.3
		c-0.2-0.1-0.4-0.1-0.7-0.1c-0.2,0-0.4,0-0.6,0.1c-0.2,0.1-0.4,0.2-0.6,0.3v-0.2c0,0,0-0.1,0-0.1s-0.1,0-0.1,0h-0.8c0,0-0.1,0-0.1,0
		c0,0,0,0.1,0,0.1v3.9c0,0,0,0.1,0,0.1c0,0,0.1,0,0.1,0h0.9c0,0,0.1,0,0.1,0c0,0,0-0.1,0-0.1v-2.9c0.1-0.1,0.2-0.1,0.4-0.2
		c0.1,0,0.2-0.1,0.3-0.1c0.1,0,0.2,0,0.3,0c0.1,0,0.1,0.1,0.2,0.1c0,0.1,0.1,0.1,0.1,0.2c0,0.1,0,0.2,0,0.3v2.4c0,0,0,0.1,0,0.1
		s0.1,0,0.1,0h0.9c0,0,0.1,0,0.1,0C34.3,29.3,34.4,29.2,34.4,29.2 M28.8,27.5c0,0.6-0.2,0.9-0.7,0.9c-0.2,0-0.4-0.1-0.5-0.2
		c-0.1-0.2-0.2-0.4-0.2-0.7V27c0-0.3,0.1-0.5,0.2-0.7c0.1-0.2,0.3-0.2,0.5-0.2c0.4,0,0.7,0.3,0.7,0.9V27.5z M30,27
		c0-0.3,0-0.6-0.1-0.8c-0.1-0.2-0.2-0.4-0.3-0.6c-0.2-0.2-0.3-0.3-0.6-0.4c-0.2-0.1-0.5-0.1-0.8-0.1s-0.6,0-0.8,0.1
		c-0.2,0.1-0.4,0.2-0.6,0.4c-0.2,0.2-0.3,0.4-0.3,0.6c-0.1,0.2-0.1,0.5-0.1,0.8v0.5c0,0.3,0,0.6,0.1,0.8s0.2,0.4,0.3,0.6
		c0.2,0.2,0.3,0.3,0.6,0.4s0.5,0.1,0.8,0.1s0.6,0,0.8-0.1c0.2-0.1,0.4-0.2,0.6-0.4c0.2-0.2,0.3-0.4,0.3-0.6s0.1-0.5,0.1-0.8V27z
		 M25.9,29.1v-0.7c0,0,0-0.1,0-0.1c0,0-0.1,0-0.1,0h0c-0.1,0-0.3,0-0.4,0s-0.3,0-0.5,0c-0.1,0-0.2,0-0.2,0c-0.1,0-0.1-0.1-0.2-0.1
		c-0.1-0.1-0.1-0.2-0.1-0.3c0-0.1,0-0.2,0-0.4V27c0-0.2,0-0.3,0-0.4c0-0.1,0.1-0.2,0.1-0.3c0.1-0.1,0.1-0.1,0.2-0.1s0.2,0,0.2,0
		c0.2,0,0.4,0,0.5,0c0.1,0,0.3,0,0.4,0h0c0,0,0.1,0,0.1,0c0,0,0,0,0-0.1v-0.7c0-0.1,0-0.1,0-0.1c0,0-0.1,0-0.1-0.1
		c-0.1,0-0.2,0-0.4-0.1c-0.2,0-0.3,0-0.6,0c-0.5,0-0.9,0.2-1.2,0.5c-0.3,0.3-0.5,0.8-0.5,1.4v0.6c0,0.6,0.2,1.1,0.5,1.4
		c0.3,0.3,0.7,0.5,1.2,0.5c0.2,0,0.4,0,0.6,0c0.2,0,0.3,0,0.4-0.1c0.1,0,0.1,0,0.1-0.1C25.9,29.2,25.9,29.2,25.9,29.1 M22.4,29.2
		v-2.4c0-0.2,0-0.4-0.1-0.7c0-0.2-0.1-0.4-0.2-0.5c-0.1-0.2-0.2-0.3-0.4-0.3c-0.2-0.1-0.4-0.1-0.7-0.1c-0.2,0-0.4,0-0.6,0.1
		c-0.2,0.1-0.4,0.2-0.6,0.3v-0.2c0,0,0-0.1,0-0.1c0,0-0.1,0-0.1,0h-0.8c0,0-0.1,0-0.1,0c0,0,0,0.1,0,0.1v3.9c0,0,0,0.1,0,0.1
		s0.1,0,0.1,0h0.9c0,0,0.1,0,0.1,0c0,0,0-0.1,0-0.1v-2.9c0.1-0.1,0.2-0.1,0.4-0.2c0.1,0,0.2-0.1,0.3-0.1s0.2,0,0.3,0
		c0.1,0,0.1,0.1,0.2,0.1c0,0.1,0.1,0.1,0.1,0.2c0,0.1,0,0.2,0,0.3v2.4c0,0,0,0.1,0,0.1c0,0,0.1,0,0.1,0h0.9c0,0,0.1,0,0.1,0
		C22.3,29.3,22.4,29.2,22.4,29.2 M16.7,28.4c-0.1,0-0.2,0.1-0.3,0.1c-0.1,0-0.2,0-0.3,0c-0.2,0-0.3,0-0.3-0.1s-0.1-0.1-0.1-0.3v-0.1
		c0-0.1,0-0.2,0-0.2c0-0.1,0.1-0.1,0.1-0.2c0,0,0.1-0.1,0.2-0.1c0.1,0,0.2,0,0.3,0h0.4C16.7,27.6,16.7,28.4,16.7,28.4z M17.9,26.6
		c0-0.3,0-0.5-0.1-0.7c-0.1-0.2-0.2-0.3-0.3-0.5c-0.2-0.1-0.3-0.2-0.5-0.3c-0.2-0.1-0.5-0.1-0.7-0.1c-0.2,0-0.5,0-0.7,0
		c-0.2,0-0.4,0.1-0.5,0.1c-0.1,0-0.1,0.1-0.1,0.2V26c0,0,0,0.1,0,0.1c0,0,0.1,0,0.1,0h0c0.1,0,0.1,0,0.2,0c0.1,0,0.2,0,0.3,0
		c0.1,0,0.2,0,0.3,0c0.1,0,0.2,0,0.3,0c0.2,0,0.3,0,0.4,0.1c0.1,0.1,0.2,0.2,0.2,0.4v0.3h-0.4c-0.6,0-1.1,0.1-1.4,0.3
		s-0.4,0.5-0.4,0.9v0.1c0,0.2,0,0.4,0.1,0.6c0.1,0.2,0.2,0.3,0.3,0.4c0.1,0.1,0.2,0.2,0.4,0.2c0.2,0,0.3,0.1,0.5,0.1
		c0.2,0,0.4,0,0.6-0.1c0.2-0.1,0.3-0.1,0.5-0.2v0.1c0,0,0,0.1,0,0.1s0.1,0,0.1,0h0.8c0,0,0.1,0,0.1,0s0-0.1,0-0.1L17.9,26.6
		L17.9,26.6z M12.7,27.7c0,0.2-0.1,0.4-0.2,0.5c-0.1,0.1-0.4,0.2-0.8,0.2h-0.1c-0.1,0-0.1,0-0.2,0s-0.1,0-0.2,0h-0.1V27h0.8
		c0.3,0,0.5,0.1,0.6,0.2S12.7,27.5,12.7,27.7L12.7,27.7z M12.6,25.6c0,0.1,0,0.2,0,0.2c0,0.1-0.1,0.1-0.1,0.2
		c-0.1,0-0.1,0.1-0.2,0.1c-0.1,0-0.2,0-0.4,0h-0.8v-1.3c0,0,0.1,0,0.1,0s0.1,0,0.2,0h0.2h0.1c0.4,0,0.6,0,0.8,0.1
		c0.2,0.1,0.2,0.2,0.2,0.4L12.6,25.6L12.6,25.6z M13.9,27.7c0-0.3-0.1-0.5-0.2-0.7c-0.1-0.2-0.3-0.3-0.5-0.4
		c0.2-0.1,0.3-0.2,0.5-0.4c0.1-0.2,0.2-0.4,0.2-0.6v-0.1c0-0.3-0.1-0.5-0.2-0.7c-0.1-0.2-0.3-0.3-0.5-0.5c-0.2-0.1-0.4-0.2-0.7-0.3
		c-0.3,0-0.6-0.1-0.9-0.1c-0.1,0-0.2,0-0.4,0c-0.1,0-0.2,0-0.4,0s-0.2,0-0.3,0c-0.1,0-0.2,0-0.2,0c-0.1,0-0.2,0.1-0.3,0.1
		c-0.1,0.1-0.1,0.2-0.1,0.3v4.4c0,0.2,0,0.3,0.1,0.3c0.1,0.1,0.2,0.1,0.3,0.1c0.1,0,0.2,0,0.3,0c0.1,0,0.2,0,0.3,0
		c0.1,0,0.2,0,0.4,0c0.1,0,0.3,0,0.4,0c0.3,0,0.6,0,0.9-0.1c0.3,0,0.5-0.1,0.7-0.3c0.2-0.1,0.4-0.3,0.5-0.5c0.1-0.2,0.2-0.5,0.2-0.8
		C13.9,27.8,13.9,27.7,13.9,27.7z"/>
	<rect x="4.2" class="st3" width="49.5" height="35"/>
</g>
</svg>
