<svg
	width="58"
	height="35"
	viewBox="3 26 58 35"
	xmlns="http://www.w3.org/2000/svg">
	<g id="Cheque">
		<path d="m9 27h52v26h-52z" fill="#9bc9ff"/>
		<path d="m9 53h52v4h-52z" fill="#2488ff"/>
		<path d="m9 57h52v4h-52z" fill="#006df0"/>
		<path d="m9 53v-26h-6v34h6v-4z" fill="#6d6e71"/>
		<circle cx="22" cy="40" fill="#828384" r="9"/>
		<path d="m35 53h26v-26c0 15.477-10.523 26-26 26z" fill="#88b0df"/>
		<g fill="#f1f2f2">
			<path d="m56 32h-7a1 1 0 0 0 0 2h7a1 1 0 0 0 0-2z"/>
			<path d="m56 36h-9a1 1 0 0 0 0 2h9a1 1 0 0 0 0-2z"/>
			<path d="m57 41a1 1 0 0 0 -1-1h-11a1 1 0 0 0 0 2h11a1 1 0 0 0 1-1z"/>
		</g>
		<path fill="#6d6e71" d="m39.5 48-1.1-1.467a3 3 0 0 0 -4.8 0l-1.4 1.867a1 1 0 1 0 1.6 1.2l1.4-1.867a1.03 1.03 0 0 1 1.6 0l1.4 1.867a1 1 0 0 0 .8.4h5a1 1 0 0 0 0-2z"/>
		<path fill="#6d6e71" d="m48 48a1 1 0 0 0 0 2h1a1 1 0 0 0 0-2z"/>
	</g>
	<g id="pen">
		<path d="m37.768 36.67-.768 5.33 4.232-3.33 16-27.713-3.464-2z" fill="#d80027"/>
		<path d="m56.268 4.627-2.5 4.33 3.464 2 2.5-4.33a2 2 0 0 0 -.732-2.727 2 2 0 0 0 -2.732.727z" fill="#ab2300"/>
		<path d="m54.329 22.251a1 1 0 0 1 -.865-1.5l4-6.928-1.732-1a1 1 0 0 1 1-1.732l2.6 1.5a1 1 0 0 1 .366 1.366l-4.5 7.794a1 1 0 0 1 -.869.5z" fill="#2488ff"/>
	</g>
	<path transform="translate(-1 29.5) scale(0.06 0.06)" fill="#fdd105" d="M340.56,139.38H445.14c-.45,1.37-.62,2.14-.94,2.83-3.51,7.52-7.17,15-10.51,22.58-1.11,2.53-2.46,3.52-5.25,3.37-4.65-.24-9.33-.06-14-.06H331.2v14.81h94l-13.66,29.2H343.33C361.17,242,413.47,254.94,448,217c0,2.77,0,4.8,0,6.82,0,8.17-.22,16.34.11,24.5.14,3.4-1.21,5.13-3.88,6.66-23.91,13.71-49.23,17.69-75.93,10.47-27.84-7.53-48.41-24.3-61.4-50.11-1.38-2.74-3-3.38-5.82-3.34-9.82.13-19.64.05-30.1.05l13.52-29h13.05V168.39H269.76c4.37-9.42,8.41-18.1,12.42-26.79.92-2,2.5-2.3,4.5-2.27,5.82.1,11.65,0,17.61,0,15.39-32.26,40.35-52,75.74-57.31s65.46,10.16,80.93,26l-11.5,24.8c-19.54-21.78-43.31-30.19-71.65-22.21C362.07,115.08,349.87,124.69,340.56,139.38Z"/>
</svg>