<svg
	enable-background="new 0 0 473.94 473.94"
	viewBox="30 105 413.94 253.96"
	width="58"
	height="35"
	xmlns="http://www.w3.org/2000/svg">
	<path fill="#1D2566" d="M0,0 l473.94,0 l0,473.94 l-473.94,0z" />
	<path d="m159.5 121.955c-59.797.378-108.212 49.133-108.212 109.143 0 60.246 48.789 109.136 108.911 109.136 28.202 0 53.923-10.773 73.275-28.437l-.004-.004h.015c3.97-3.618 7.667-7.532 11.061-11.689h-22.308c-2.982-3.603-5.691-7.368-8.123-11.248h38.477c2.35-3.749 4.46-7.644 6.35-11.678h-51.172c-1.747-3.749-3.263-7.57-4.554-11.465h60.28c3.641-10.881 5.605-22.525 5.605-34.615 0-8.03-.872-15.843-2.507-23.379h-66.577c.831-3.88 1.867-7.708 3.102-11.461h60.31c-1.347-4.004-2.915-7.899-4.696-11.686h-50.97c1.837-3.94 3.921-7.76 6.245-11.465h38.454c-2.563-4.09-5.392-7.996-8.449-11.678h-21.44c3.319-3.918 6.963-7.603 10.918-11.019-19.345-17.672-45.069-28.452-73.286-28.452-.245-.003-.477-.003-.705-.003z"
		fill="#931b1d"/>
	<path d="m415.189 231.132c.011 60.269-48.721 109.14-108.885 109.158-60.138.019-108.908-48.834-108.926-109.113v-.045c-.019-60.287 48.729-109.162 108.878-109.177 60.145-.022 108.919 48.834 108.934 109.117-.001 0-.001.027-.001.06z"
		fill="#f16622"/>
	<path d="m415.189 232.337c.011 60.272-48.721 109.151-108.885 109.162-60.138.022-108.908-48.837-108.926-109.106v-.056c-.019-60.276 48.729-109.155 108.878-109.17 60.145-.022 108.919 48.834 108.934 109.113-.001.001-.001.035-.001.057z"
		fill="#f7981d"/>
	<path d="m159.5 123.194c-59.797.385-108.212 49.129-108.212 109.143 0 60.25 48.789 109.143 108.911 109.143 28.202 0 53.923-10.78 73.275-28.441l-.004-.011h.015c3.97-3.615 7.667-7.517 11.061-11.689h-22.308c-2.982-3.596-5.691-7.353-8.123-11.233h38.477c2.35-3.753 4.46-7.659 6.35-11.689h-51.172c-1.747-3.753-3.263-7.573-4.554-11.461h60.28c3.641-10.889 5.605-22.529 5.605-34.619 0-8.026-.872-15.843-2.507-23.375h-66.577c.831-3.876 1.867-7.712 3.102-11.461h60.31c-1.347-4.007-2.915-7.903-4.696-11.693h-50.97c1.837-3.925 3.921-7.76 6.245-11.461h38.454c-2.563-4.086-5.392-7.989-8.449-11.686h-21.44c3.319-3.91 6.963-7.596 10.918-11.019-19.345-17.669-45.069-28.449-73.286-28.449-.245.001-.477.001-.705.001z"
		fill="#cb2026"/>
	<g fill="#fff">
		<path d="m199.357 260.123 1.456-9.875c-.793 0-1.961.337-2.99.337-4.034 0-4.483-2.148-4.221-3.738l3.259-20.157h6.133l1.482-10.93h-5.781l1.179-6.788h-11.599c-.251.254-6.847 38.215-6.847 42.828 0 6.844 3.828 9.893 9.238 9.848 4.227-.039 7.531-1.21 8.691-1.525z"/>
		<path d="m203.035 241.291c0 16.423 10.81 20.329 20.026 20.329 8.509 0 12.247-1.912 12.247-1.912l2.047-11.21s-6.469 2.874-12.314 2.874c-12.449 0-10.267-9.309-10.267-9.309h23.569s1.515-7.536 1.515-10.604c0-7.652-3.809-16.984-16.535-16.984-11.663.003-20.288 12.586-20.288 26.816zm20.337-16.415c6.541 0 5.332 7.371 5.332 7.966h-12.872c-.004-.759 1.213-7.966 7.54-7.966z"/>
		<path d="m296.793 260.123 2.077-12.681s-5.691 2.874-9.594 2.874c-8.224 0-11.521-6.309-11.521-13.059 0-13.725 7.076-21.276 14.96-21.276 5.905 0 10.649 3.33 10.649 3.33l1.89-12.303s-7.031-2.859-13.055-2.859c-13.388 0-26.417 11.626-26.417 33.5 0 14.481 7.038 24.063 20.875 24.063 3.909.002 10.136-1.589 10.136-1.589z"/>
		<path d="m135.583 214.654c-7.951 0-14.047 2.556-14.047 2.556l-1.68 10.013s5.036-2.043 12.636-2.043c4.318 0 7.472.483 7.472 4.004 0 2.133-.385 2.922-.385 2.922s-3.401-.288-4.98-.288c-10.024 0-20.561 4.288-20.561 17.227 0 10.185 6.907 12.527 11.192 12.527 8.183 0 11.7-5.317 11.895-5.34l-.382 4.445h10.208l4.557-32.011c0-13.575-11.821-14.012-15.925-14.012zm2.488 26.05c.221 1.957-1.227 11.124-8.209 11.124-3.6 0-4.539-2.761-4.539-4.393 0-3.177 1.725-6.997 10.226-6.997 1.972 0 2.185.217 2.522.266z"/>
		<path d="m162.362 261.328c2.608 0 17.538.67 17.538-14.769 0-14.436-13.818-11.588-13.818-17.388 0-2.877 2.253-3.798 6.368-3.798 1.635 0 7.925.528 7.925.528l1.467-10.267s-4.071-.906-10.694-.906c-8.587 0-17.287 3.42-17.287 15.165 0 13.317 14.518 11.97 14.518 17.575 0 3.742-4.06 4.049-7.188 4.049-5.403 0-10.271-1.86-10.294-1.774l-1.545 10.151c.27.095 3.278 1.434 13.01 1.434z"/>
		<path d="m392.84 205.445-2.496 15.551s-4.367-6.035-11.195-6.035c-10.63 0-19.483 12.834-19.483 27.588 0 9.523 4.718 18.844 14.38 18.844 6.948 0 10.791-4.853 10.791-4.853l-.505 4.142h11.278l8.864-55.262zm-5.381 30.335c0 6.133-3.038 14.323-9.321 14.323-4.176 0-6.125-3.51-6.125-9.018 0-9.003 4.034-14.96 9.122-14.96 4.18.001 6.324 2.882 6.324 9.655z"/>
		<path d="m72.792 260.73 7.068-41.721 1.029 41.721h7.992l14.903-41.721-6.604 41.721h11.869l9.149-55.322h-18.36l-11.431 33.938-.595-33.938h-16.917l-9.276 55.322z"/>
		<path d="m251.454 260.808c3.375-19.229 4-34.851 12.06-32.003 1.411-7.439 2.769-10.316 4.303-13.47 0 0-.718-.153-2.238-.153-5.182 0-9.033 7.109-9.033 7.109l1.025-6.526h-10.799l-7.225 45.043z"/>
		<path d="m323.546 214.654c-7.951 0-14.043 2.556-14.043 2.556l-1.676 10.013s5.025-2.043 12.632-2.043c4.314 0 7.476.483 7.476 4.004 0 2.133-.389 2.922-.389 2.922s-3.401-.288-4.992-.288c-10.028 0-20.553 4.288-20.553 17.227 0 10.185 6.911 12.527 11.192 12.527 8.183 0 11.704-5.317 11.891-5.34l-.378 4.445h10.215l4.554-32.011c.004-13.575-11.813-14.012-15.929-14.012zm2.492 26.05c.221 1.957-1.22 11.124-8.213 11.124-3.596 0-4.528-2.761-4.528-4.393 0-3.177 1.725-6.997 10.211-6.997 1.984 0 2.19.217 2.53.266z"/>
		<path d="m348.799 260.808c3.379-19.229 4.004-34.851 12.063-32.003 1.411-7.439 2.769-10.316 4.311-13.47 0 0-.73-.153-2.241-.153-5.197 0-9.036 7.109-9.036 7.109l1.033-6.526h-10.806l-7.229 45.04h11.906z"/>
	</g>
</svg>