<svg 
	xmlns="http://www.w3.org/2000/svg"
	width="58"
	height="35"
	viewBox="20 34 210.17 126.72">
	<rect fill="#8bbd06" width="250.17" height="191.67"/>
	<g id="g10">
		<path fill="#fff"
					d="M300.78,261.06a10.69,10.69,0,1,1,10.47-10.68,10.54,10.54,0,0,1-10.47,10.68m0-26.93A16.25,16.25,0,1,0,317,250.37a16.05,16.05,0,0,0-16.19-16.25"
					transform="translate(-243.83 -162.83)"/>
		<path fill="#fff"
					d="M384.19,249.94a15.76,15.76,0,1,0-31.5.39,16.46,16.46,0,0,0,4.57,11.38,15.31,15.31,0,0,0,11.13,4.84c4.79,0,11.5-2.3,14.69-8.81l.08-.21h-6.42l0,0a11,11,0,0,1-8.08,3.45,10.28,10.28,0,0,1-10-8.44h25.4c.06-.61.13-1.82.13-2.65m-25.34-2.52a9.8,9.8,0,0,1,19.16,0Z"
					transform="translate(-243.83 -162.83)"/>
		<path fill="#fff"
					d="M334.87,239.49c-5.72,0-8.63,3.06-8.63,9.13v18h-5.88V248.2a14.13,14.13,0,0,1,1.94-7.64c1.56-2.4,5.26-6.44,12.57-6.44s11,4,12.56,6.44a14,14,0,0,1,1.93,7.64v18.38h-5.87v-18c0-6.06-2.89-9.13-8.62-9.13"
					transform="translate(-243.83 -162.83)"/>
		<path fill="#fff"
					d="M414.75,234.13l-12.39,30.18-3.06,7.47-1.69,4.13h-6.11l4.74-11.59-12.66-30.19H390l9.27,22.7,9.29-22.7Z"
					transform="translate(-243.83 -162.83)"/>
	</g>
	<path fill="#fff"
				d="M421.51,264.22a2.69,2.69,0,0,1,2.7-2.83,2.63,2.63,0,0,1,2.66,2.83,2.67,2.67,0,0,1-2.75,2.83A2.64,2.64,0,0,1,421.51,264.22Z"
				transform="translate(-243.83 -162.83)"/>
	<path fill="#fff"
				d="M432.17,266.56V247.8h-3v-3h3v-1c0-3.06.72-5.85,2.52-7.6a7.58,7.58,0,0,1,5.31-2,9,9,0,0,1,3.38.63l-.54,3.06a5.76,5.76,0,0,0-2.52-.5c-3.37,0-4.23,2.93-4.23,6.3v1.17h5.27v3h-5.27v18.76Z"
				transform="translate(-243.83 -162.83)"/>
	<path fill="#fff"
				d="M444.91,251.58c0-2.56,0-4.77-.18-6.79h3.46l.18,4.32h.14a6.59,6.59,0,0,1,6.07-4.77,8.08,8.08,0,0,1,1.08.09v3.73a6.18,6.18,0,0,0-1.35-.09c-2.79,0-4.77,2.07-5.31,5a11.81,11.81,0,0,0-.14,1.85v11.61h-4Z"
				transform="translate(-243.83 -162.83)"/>
	<path fill="#fff"
				d="M288.48,291.83l-3.92-12.14h1.69l1.86,6c.5,1.64.94,3.11,1.28,4.54h0c.34-1.4.82-2.93,1.37-4.52l2-6h1.65l-4.28,12.14Z"
				transform="translate(-243.83 -162.83)"/>
	<path fill="#fff"
				d="M302.89,287.4a4.24,4.24,0,0,1-4.28,4.63c-2.31,0-4.12-1.73-4.12-4.48s1.9-4.61,4.26-4.61S302.89,284.76,302.89,287.4Zm-6.8.09c0,1.91,1.07,3.35,2.59,3.35s2.61-1.42,2.61-3.39c0-1.48-.73-3.33-2.57-3.33S296.09,285.85,296.09,287.49Z"
				transform="translate(-243.83 -162.83)"/>
	<path fill="#fff"
				d="M306.74,281v2.09H309v1.21h-2.24V289c0,1.08.3,1.69,1.17,1.69a2.89,2.89,0,0,0,.91-.11l.07,1.21a4.21,4.21,0,0,1-1.38.22,2.21,2.21,0,0,1-1.69-.67,3.44,3.44,0,0,1-.6-2.29v-4.75h-1.33v-1.21h1.33V281.5Z"
				transform="translate(-243.83 -162.83)"/>
	<path fill="#fff"
				d="M310.73,285.84c0-1,0-1.91-.07-2.72H312l.07,1.73h.05a2.6,2.6,0,0,1,2.4-1.91,3.21,3.21,0,0,1,.43,0v1.49a2.39,2.39,0,0,0-.53,0,2.19,2.19,0,0,0-2.1,2,4.86,4.86,0,0,0-.05.74v4.65h-1.56Z"
				transform="translate(-243.83 -162.83)"/>
	<path fill="#fff"
				d="M317.23,287.76a2.76,2.76,0,0,0,2.95,3,5.51,5.51,0,0,0,2.38-.45l.28,1.13A6.92,6.92,0,0,1,320,292c-2.64,0-4.22-1.78-4.22-4.41s1.53-4.68,4-4.68c2.82,0,3.55,2.48,3.55,4.09a3.9,3.9,0,0,1-.05.74Zm4.58-1.13a2.24,2.24,0,0,0-2.17-2.56,2.58,2.58,0,0,0-2.4,2.56Z"
				transform="translate(-243.83 -162.83)"/>
	<path fill="#fff"
				d="M335.13,291.53a6,6,0,0,1-2.47.5,4.11,4.11,0,0,1-4.28-4.45,4.41,4.41,0,0,1,4.62-4.65,4.86,4.86,0,0,1,2.17.47l-.36,1.21a3.78,3.78,0,0,0-1.81-.41,3,3,0,0,0-3,3.29,3,3,0,0,0,3,3.26,4.42,4.42,0,0,0,1.92-.41Z"
				transform="translate(-243.83 -162.83)"/>
	<path fill="#fff"
				d="M337,285.84c0-1,0-1.91-.07-2.72h1.37l.07,1.73h.05a2.6,2.6,0,0,1,2.4-1.91,3.21,3.21,0,0,1,.43,0v1.49a2.39,2.39,0,0,0-.53,0,2.19,2.19,0,0,0-2.1,2,4.86,4.86,0,0,0-.05.74v4.65H337Z"
				transform="translate(-243.83 -162.83)"/>
	<path fill="#fff"
				d="M343.45,287.76a2.76,2.76,0,0,0,2.95,3,5.51,5.51,0,0,0,2.38-.45l.28,1.13a6.92,6.92,0,0,1-2.88.56c-2.64,0-4.22-1.78-4.22-4.41s1.53-4.68,4-4.68c2.82,0,3.55,2.48,3.55,4.09a3.9,3.9,0,0,1-.05.74Zm4.58-1.13a2.24,2.24,0,0,0-2.17-2.56,2.58,2.58,0,0,0-2.4,2.56Zm.35-7.27-2.17,2.57h-1.1l1.56-2.57Z"
				transform="translate(-243.83 -162.83)"/>
	<path fill="#fff"
				d="M358.88,279v10.53c0,.77,0,1.66.07,2.25h-1.38l-.07-1.51h-.05a3.1,3.1,0,0,1-2.89,1.71c-2.08,0-3.69-1.78-3.69-4.43,0-2.9,1.78-4.66,3.85-4.66a2.87,2.87,0,0,1,2.59,1.31h0V279Zm-1.54,7.62a2.82,2.82,0,0,0-.07-.67,2.31,2.31,0,0,0-2.25-1.82c-1.62,0-2.57,1.44-2.57,3.35s.87,3.22,2.54,3.22a2.37,2.37,0,0,0,2.29-1.89,2.78,2.78,0,0,0,.07-.68Z"
				transform="translate(-243.83 -162.83)"/>
	<path fill="#fff"
				d="M363.22,280.67a.94.94,0,0,1-1,1,.93.93,0,0,1-.94-1,1,1,0,0,1,1-1A.94.94,0,0,1,363.22,280.67Zm-1.74,11.16v-8.71H363v8.71Z"
				transform="translate(-243.83 -162.83)"/>
	<path fill="#fff"
				d="M367.52,281v2.09h2.24v1.21h-2.24V289c0,1.08.3,1.69,1.17,1.69a2.89,2.89,0,0,0,.91-.11l.07,1.21a4.21,4.21,0,0,1-1.38.22,2.21,2.21,0,0,1-1.69-.67,3.44,3.44,0,0,1-.6-2.29v-4.75h-1.33v-1.21H366V281.5Z"
				transform="translate(-243.83 -162.83)"/>
	<path fill="#fff"
				d="M375.06,290.23a4.37,4.37,0,0,0,2.08.61c1.12,0,1.65-.56,1.65-1.3s-.44-1.15-1.58-1.58c-1.56-.58-2.29-1.42-2.29-2.47a2.67,2.67,0,0,1,3-2.56,3.94,3.94,0,0,1,2.09.54l-.37,1.15a3.29,3.29,0,0,0-1.76-.52c-.92,0-1.42.54-1.42,1.19s.5,1,1.62,1.49c1.47.56,2.25,1.31,2.25,2.61,0,1.55-1.19,2.63-3.2,2.63a4.85,4.85,0,0,1-2.41-.61Z"
				transform="translate(-243.83 -162.83)"/>
	<path fill="#fff"
				d="M389.49,289.44c0,.92,0,1.71.07,2.39h-1.38l-.09-1.42h0a3.2,3.2,0,0,1-2.84,1.62c-1.35,0-3-.77-3-3.82v-5.1h1.56v4.81c0,1.66.52,2.79,1.92,2.79a2.25,2.25,0,0,0,2.06-1.46,2.2,2.2,0,0,0,.14-.81v-5.33h1.56Z"
				transform="translate(-243.83 -162.83)"/>
	<path fill="#fff"
				d="M392.08,285.84c0-1,0-1.91-.07-2.72h1.37l.07,1.73h.05a2.6,2.6,0,0,1,2.4-1.91,3.21,3.21,0,0,1,.43,0v1.49a2.39,2.39,0,0,0-.53,0,2.19,2.19,0,0,0-2.1,2,4.86,4.86,0,0,0-.05.74v4.65h-1.56Z"
				transform="translate(-243.83 -162.83)"/>
	<path fill="#fff" d="M401.64,279h1.56v12.78h-1.56Z" transform="translate(-243.83 -162.83)"/>
	<path fill="#fff"
				d="M406.7,287.76a2.76,2.76,0,0,0,2.95,3,5.51,5.51,0,0,0,2.38-.45l.28,1.13a6.91,6.91,0,0,1-2.88.56c-2.65,0-4.23-1.78-4.23-4.41s1.53-4.68,4-4.68c2.82,0,3.55,2.48,3.55,4.09a3.9,3.9,0,0,1-.05.74Zm4.58-1.13a2.24,2.24,0,0,0-2.17-2.56,2.58,2.58,0,0,0-2.4,2.56Z"
				transform="translate(-243.83 -162.83)"/>
	<path fill="#fff"
				d="M418.54,291.83V279.7h1.7l3.82,6.14a34.25,34.25,0,0,1,2.13,3.94l.05,0c-.14-1.62-.18-3.1-.18-5V279.7h1.46v12.14H426l-3.8-6.16a35.49,35.49,0,0,1-2.22-4.05l-.05,0c.09,1.53.11,3,.11,5v5.19Z"
				transform="translate(-243.83 -162.83)"/>
	<path fill="#fff"
				d="M431,287.76a2.76,2.76,0,0,0,2.95,3,5.51,5.51,0,0,0,2.38-.45l.28,1.13a6.91,6.91,0,0,1-2.88.56c-2.65,0-4.23-1.78-4.23-4.41s1.53-4.68,4-4.68c2.82,0,3.55,2.48,3.55,4.09a3.9,3.9,0,0,1-.05.74Zm4.58-1.13a2.24,2.24,0,0,0-2.17-2.56,2.58,2.58,0,0,0-2.4,2.56Z"
				transform="translate(-243.83 -162.83)"/>
	<path fill="#fff"
				d="M440.93,281v2.09h2.24v1.21h-2.24V289c0,1.08.3,1.69,1.17,1.69a2.89,2.89,0,0,0,.91-.11l.07,1.21a4.2,4.2,0,0,1-1.38.22,2.21,2.21,0,0,1-1.69-.67,3.44,3.44,0,0,1-.6-2.29v-4.75h-1.33v-1.21h1.33V281.5Z"
				transform="translate(-243.83 -162.83)"/>
</svg>