<svg version="1.1"
		 xmlns="http://www.w3.org/2000/svg"
		 xmlns:xlink="http://www.w3.org/1999/xlink"
		 width="58"
		 height="35"
		 viewBox="-20 -25 201.25 121.44"
		 xml:space="preserve">
	<path fill="#ffffff" d="M-20,-25 l201.25,0 l0,121.44 l-202.25,0z"/>
	<g>
		<path fill="#16D6FF" d="M49.182,18.756l0.052,2.127c-2.021-1.766-4.716-2.577-8.454-2.577c-8.341,0-11.762,3.965-11.806,13.685   l-0.011,2.586c-0.023,5.439,1.017,9.02,3.276,11.273c1.979,1.975,4.911,2.935,8.965,2.935c2.939,0,5.147-0.521,6.826-1.623   l-0.011,1.634h7.025l-0.048-29.986L49.182,18.756z M41.896,43.134c-2.068,0-3.432-0.398-4.29-1.255   c-1.17-1.166-1.661-3.365-1.645-7.354l0.009-1.896c0.028-6.762,1.357-8.613,6.179-8.613c2.267,0,3.803,0.429,4.692,1.314   c0.859,0.854,1.255,2.241,1.248,4.364l-0.026,7.816C48.05,41.452,46.205,43.134,41.896,43.134z"/>
		<path fill="#16D6FF" d="M83.376,18.804H76.48l-0.024,19.398c-0.005,2.043-0.296,3.041-1.077,3.687   c-0.899,0.75-2.262,1.101-4.294,1.101c-2.002,0-3.331-0.31-4.18-0.97c-0.793-0.621-1.114-1.695-1.109-3.705l0.053-19.511h-6.964   l0.033,20.259c-0.009,3.508,1.096,5.989,3.378,7.579c2.127,1.515,4.706,2.133,8.896,2.133c2.059,0,3.789-0.177,5.257-0.536   l0.033,2.59c-0.005,2.093-0.324,2.518-1.908,2.518H71.43v5.767h4.281c5.42,0,7.635-2.135,7.646-7.369L83.376,18.804z"/>
		<path fill="#16D6FF" d="M9.633,42.952l0.011,5.854c0,0,4.066,0.008,4.23,0.008c8.538,0,12.199-4.212,12.243-14.088l0.012-2.585   c0.026-5.352-0.985-8.862-3.18-11.048c-1.891-1.88-4.629-2.757-8.615-2.757c-3.708,0-6.507,0.846-8.518,2.579l-0.017-2.068   L0,18.809l0.07,40.304h7.025l0.004-29.27c0.026-4.28,1.563-5.798,6.053-5.798c2.132,0,3.522,0.397,4.381,1.251   c1.139,1.134,1.617,3.301,1.597,7.241l-0.008,1.896c-0.031,6.762-1.43,8.501-6.133,8.511L9.633,42.952z"/>
		<path fill="#16D6FF" d="M133.289,1.072v36.671c-0.005,2.121,0.349,3.478,1.141,4.267c0.823,0.822,2.142,1.171,4.547,1.171   c4.33,0,6.372-0.866,6.381-8.784l0.002-1.854c0.007-3.699-0.444-5.393-1.509-6.502c-0.741-0.771-1.865-1.177-3.619-1.291h-4.206   v-5.933l4.705,0.004l0.001-0.004c3.767,0.061,6.517,1.013,8.397,2.88c2.246,2.231,3.286,5.375,3.281,10.658l-0.005,2.316   c-0.013,9.959-4.053,14.207-13.516,14.207c-4.941,0-8.034-0.887-10.028-2.874c-1.743-1.736-2.569-4.322-2.562-7.905V0.154   c-0.385-0.012-0.767-0.029-1.155-0.029c-7.49,0-14.438,2.316-20.175,6.265v33.762c-0.003,1.221,0.118,1.896,0.409,2.193   c0.233,0.236,0.697,0.352,1.422,0.352h3.352c0,0,0,1.393,0,1.77l-0.006,2.611c-0.004,1.157-0.004,1.72-0.004,1.72l-4.309-0.001   c-2.92,0-4.874-0.608-6.15-1.91c-1.248-1.275-1.819-3.182-1.812-5.998V12.835c-5.212,6.195-8.356,14.187-8.356,22.915   c0,15.927,10.457,29.412,24.88,33.97V29.393h7.355v41.816c1.117,0.105,2.249,0.165,3.394,0.165   c19.673,0,35.621-15.949,35.621-35.624C160.766,18.879,149.035,4.757,133.289,1.072z M122.246,23.1   c-0.01,2.416-1.442,3.8-3.936,3.8h-0.294c-1.265,0-2.312-0.38-3.034-1.1c-0.695-0.689-1.046-1.631-1.043-2.804l0.002-0.39   c0.006-2.38,1.499-3.799,3.994-3.799h0.293c1.253,0,2.285,0.368,2.984,1.062c0.688,0.683,1.035,1.64,1.033,2.841V23.1z"/>
	</g>
</svg>