<svg xmlns="http://www.w3.org/2000/svg"
		 width="58"
		 height="35"
		 viewBox="0 -66.5 812 490">
	<rect fill="#2974b8" width="812" y="-66.5" height="490"/>
	<path fill="#fff"
				d="M105.24,207.36h48.59c.44,3.87.74,7.47,1.28,11,.94,6.15,5.22,9.81,10.8,10.06,12.92.58,25.91.59,38.82-.08a10.44,10.44,0,0,0,9.85-9.23,52.65,52.65,0,0,0,0-14.22c-.76-5.18-4.85-8-9.82-8.47-12.88-1.24-25.83-1.79-38.7-3.19a264.5,264.5,0,0,1-30.84-4.79c-16.27-3.75-25.39-14.57-28-31a119.76,119.76,0,0,1,.84-44.56c3.4-15.65,14-24.4,28.5-27.94A149.12,149.12,0,0,1,170,80.85c17.59-.19,35.25.4,52.77,1.94,22.37,2,36.53,16.87,37.68,40,.29,5.91,0,11.85,0,18.18H211.6c0-2,0-3.89,0-5.81-.17-8.92-2.84-12.64-11.27-14.31-10.51-2.08-21-1.17-31.64.05s-13.33,11.67-12,19.41c1.56,9,5.56,11.62,15.12,12.42,20.62,1.74,41.34,3,61.77,6.13,14,2.12,25.81,9.52,30.11,24.31,3.66,12.57,3.31,25.65,2.24,38.56-.56,6.84-1.52,13.88-3.8,20.3-5.11,14.38-16.94,21.33-31.07,24.27a157.46,157.46,0,0,1-26.16,2.94,376.82,376.82,0,0,1-38.47-.07,180.56,180.56,0,0,1-33.31-5C117,260,108.92,248,106.77,232,105.69,224,105.73,215.85,105.24,207.36Z"
				transform="translate(-47 -27)"/>
	<path fill="#fdd105"
				d="M340.56,139.38H445.14c-.45,1.37-.62,2.14-.94,2.83-3.51,7.52-7.17,15-10.51,22.58-1.11,2.53-2.46,3.52-5.25,3.37-4.65-.24-9.33-.06-14-.06H331.2v14.81h94l-13.66,29.2H343.33C361.17,242,413.47,254.94,448,217c0,2.77,0,4.8,0,6.82,0,8.17-.22,16.34.11,24.5.14,3.4-1.21,5.13-3.88,6.66-23.91,13.71-49.23,17.69-75.93,10.47-27.84-7.53-48.41-24.3-61.4-50.11-1.38-2.74-3-3.38-5.82-3.34-9.82.13-19.64.05-30.1.05l13.52-29h13.05V168.39H269.76c4.37-9.42,8.41-18.1,12.42-26.79.92-2,2.5-2.3,4.5-2.27,5.82.1,11.65,0,17.61,0,15.39-32.26,40.35-52,75.74-57.31s65.46,10.16,80.93,26l-11.5,24.8c-19.54-21.78-43.31-30.19-71.65-22.21C362.07,115.08,349.87,124.69,340.56,139.38Z"
				transform="translate(-47 -27)"/>
	<path fill="#fff"
				d="M467.91,269.06V79.6H515c19,0,38-.21,57,.08,11.15.17,22.14,1.83,32.06,7.56,16.36,9.45,23.22,24.62,24.22,42.55a395,395,0,0,1,0,41.8c-.74,14.7-4.6,28.46-16.82,38.38-9.07,7.37-19.78,10-31,10.32-18.47.49-37,.53-55.45.5-3.95,0-5.2,1.09-5.12,5.09.24,12.49.08,25,.08,37.49,0,1.79,0,3.58,0,5.68Zm52.24-92.92c15.48-.57,30.73-.81,45.92-1.86,5.16-.36,7.85-5.08,8.39-9.91a125.68,125.68,0,0,0,1-21.28c-.72-12.6-2.92-21-21.46-20.72-7.49.1-15,0-22.47,0H520.15Z"
				transform="translate(-47 -27)"/>
	<path fill="#fff"
				d="M606.57,268.59c4.06-13.61,8.08-27.18,12.16-40.74Q640.37,156,662,84.11c1-3.4,2.34-4.67,6.14-4.63,23,.23,46,.17,69,0,3.4,0,4.75,1,5.79,4.36q27.39,90.29,55.1,180.48c.43,1.4.6,2.89,1,4.71H746c-2.78-9.13-5.79-18.23-8.23-27.48-.87-3.28-2.19-4.24-5.41-4.22q-29.24.15-58.48-.06c-3.26,0-4.66,1.09-5.47,4.13-2.2,8.3-4.55,16.57-7.12,24.77-.41,1.29-2.26,3-3.46,3-16.49.17-33,.09-49.48,0A7.34,7.34,0,0,1,606.57,268.59ZM725.77,198.3,704,123.47l-1.48.06L681.25,198.3Z"
				transform="translate(-47 -27)"/>
	<g>
		<path fill="#fff"
					d="M104.64,313.08l7.54-.72a9.05,9.05,0,0,0,2.76,5.51,8.41,8.41,0,0,0,5.61,1.76,8.7,8.7,0,0,0,5.64-1.57,4.64,4.64,0,0,0,1.9-3.66,3.43,3.43,0,0,0-.8-2.29,6.4,6.4,0,0,0-2.79-1.64q-1.36-.47-6.2-1.66-6.23-1.53-8.74-3.75a9.82,9.82,0,0,1-3.53-7.63,9.67,9.67,0,0,1,1.66-5.42,10.39,10.39,0,0,1,4.79-3.84,19.39,19.39,0,0,1,7.55-1.32q7.22,0,10.88,3.13a11,11,0,0,1,3.83,8.36l-7.75.34a6.48,6.48,0,0,0-2.13-4.21,7.87,7.87,0,0,0-4.91-1.28,8.93,8.93,0,0,0-5.29,1.37,2.75,2.75,0,0,0-1.23,2.35,2.9,2.9,0,0,0,1.15,2.3q1.47,1.22,7.12,2.54a37.9,37.9,0,0,1,8.36,2.73,10.74,10.74,0,0,1,4.24,3.86,11.83,11.83,0,0,1-.3,12.15,11,11,0,0,1-5.18,4.23,22,22,0,0,1-8.35,1.38q-7.28,0-11.18-3.33T104.64,313.08Z"
					transform="translate(-47 -27)"/>
		<path fill="#fff" d="M142.31,294.21v-6.73h7.36v6.73Zm0,31.21V297.94h7.36v27.48Z" transform="translate(-47 -27)"/>
		<path fill="#fff"
					d="M182.49,325.42h-7.36v-14a21.44,21.44,0,0,0-.47-5.76,4,4,0,0,0-1.53-2,4.42,4.42,0,0,0-2.55-.72,6,6,0,0,0-3.43,1,5.22,5.22,0,0,0-2.08,2.74,23.42,23.42,0,0,0-.56,6.31v12.45h-7.36V297.94H164v4a11.48,11.48,0,0,1,13.61-3.79,7.45,7.45,0,0,1,3,2.21,8,8,0,0,1,1.44,3.05,22.49,22.49,0,0,1,.41,4.89Z"
					transform="translate(-47 -27)"/>
		<path fill="#fff"
					d="M189.26,327.24l8.4,1a2.83,2.83,0,0,0,1,2,5.58,5.58,0,0,0,3.3.78,8.66,8.66,0,0,0,4.32-.85,3.53,3.53,0,0,0,1.47-1.84,10.93,10.93,0,0,0,.34-3.34v-4a10,10,0,0,1-8.32,4.45,10.28,10.28,0,0,1-8.87-4.68,15.79,15.79,0,0,1-2.57-9.21q0-6.91,3.36-10.56a10.91,10.91,0,0,1,8.36-3.65,10.22,10.22,0,0,1,8.51,4.48v-3.86h6.88V322.6a24.31,24.31,0,0,1-.81,7.27,9,9,0,0,1-2.28,3.78,10.11,10.11,0,0,1-3.91,2.15,20.82,20.82,0,0,1-6.19.78q-7.07,0-10-2.39a7.48,7.48,0,0,1-3-6.07C189.24,327.87,189.25,327.58,189.26,327.24Zm6.57-16.12q0,4.37,1.71,6.4a5.32,5.32,0,0,0,4.23,2,5.87,5.87,0,0,0,4.55-2.08q1.86-2.08,1.86-6.17,0-4.27-1.78-6.34a5.68,5.68,0,0,0-4.5-2.07,5.45,5.45,0,0,0-4.36,2Q195.83,306.95,195.83,311.11Z"
					transform="translate(-47 -27)"/>
		<path fill="#fff" d="M222.69,325.42V287.49H230v37.94Z" transform="translate(-47 -27)"/>
		<path fill="#fff"
					d="M253.68,316.68l7.33,1.22a11.9,11.9,0,0,1-4.46,6.07,13.22,13.22,0,0,1-7.63,2.08q-7.25,0-10.73-4.68a15.61,15.61,0,0,1-2.75-9.47q0-6.83,3.61-10.7a12,12,0,0,1,9.13-3.87,12.41,12.41,0,0,1,9.79,4q3.59,4.05,3.43,12.41H243a7.31,7.31,0,0,0,1.78,5,5.59,5.59,0,0,0,4.24,1.8,4.54,4.54,0,0,0,2.91-.93A5.74,5.74,0,0,0,253.68,316.68Zm.42-7.35a7,7,0,0,0-1.65-4.8,5.35,5.35,0,0,0-7.8.09,6.66,6.66,0,0,0-1.54,4.71Z"
					transform="translate(-47 -27)"/>
		<path fill="#fff" d="M282.34,325.42V287.49h28.45v6.42h-20.7v8.41h19.26v6.39H290.09V319h21.44v6.39Z"
					transform="translate(-47 -27)"/>
		<path fill="#fff"
					d="M336.34,325.42v-4.11a10.68,10.68,0,0,1-4,3.47,11.29,11.29,0,0,1-5.22,1.27,10.31,10.31,0,0,1-5-1.22,7.21,7.21,0,0,1-3.22-3.42,15.09,15.09,0,0,1-1-6.08V297.94h7.36v12.63a34.57,34.57,0,0,0,.41,7.1,3.87,3.87,0,0,0,1.48,2.07,4.58,4.58,0,0,0,2.72.76,5.83,5.83,0,0,0,3.38-1,5.21,5.21,0,0,0,2-2.54q.55-1.51.55-7.41V297.94h7.36v27.48Z"
					transform="translate(-47 -27)"/>
		<path fill="#fff"
					d="M357.83,325.42h-7.36V297.94h6.83v3.91a11.8,11.8,0,0,1,3.15-3.65,5.85,5.85,0,0,1,3.18-.88,9.42,9.42,0,0,1,4.84,1.37L366.2,305a6.5,6.5,0,0,0-3.46-1.19,4.12,4.12,0,0,0-2.62.84,5.73,5.73,0,0,0-1.69,3q-.62,2.2-.62,9.21Z"
					transform="translate(-47 -27)"/>
		<path fill="#fff"
					d="M369.95,311.29a14.74,14.74,0,0,1,1.81-7,12.32,12.32,0,0,1,5.12-5.18,15.33,15.33,0,0,1,7.39-1.79,14.36,14.36,0,1,1,.05,28.73,16.29,16.29,0,0,1-7.29-1.71,11.79,11.79,0,0,1-5.27-5A16.53,16.53,0,0,1,369.95,311.29Zm7.54.39a9,9,0,0,0,2,6.26,6.47,6.47,0,0,0,9.67,0q1.95-2.17,2-6.31a9,9,0,0,0-2-6.21,6.47,6.47,0,0,0-9.67,0A9,9,0,0,0,377.49,311.68Z"
					transform="translate(-47 -27)"/>
		<path fill="#fff"
					d="M419.34,325.42V287.49h12.43q7.07,0,9.21.57a10.07,10.07,0,0,1,5.52,3.71,11.68,11.68,0,0,1,2.22,7.39,12.26,12.26,0,0,1-1.28,5.87,10.43,10.43,0,0,1-3.26,3.74,11.28,11.28,0,0,1-4,1.8,44.72,44.72,0,0,1-8,.54h-5.05v14.31Zm7.75-31.52v10.77h4.24a20.25,20.25,0,0,0,6.12-.6,5,5,0,0,0,3.3-4.81,4.87,4.87,0,0,0-1.23-3.42,5.38,5.38,0,0,0-3.11-1.68,37.69,37.69,0,0,0-5.58-.26Z"
					transform="translate(-47 -27)"/>
		<path fill="#fff"
					d="M460.54,306.33l-6.67-1.19a10.27,10.27,0,0,1,3.87-5.9q2.75-1.91,8.17-1.92a17.79,17.79,0,0,1,7.33,1.15,7.29,7.29,0,0,1,3.39,2.92q1,1.77,1,6.51l-.08,8.49a29.09,29.09,0,0,0,.35,5.34,15.42,15.42,0,0,0,1.32,3.69h-7.28q-.29-.72-.71-2.15-.18-.65-.26-.85a13.24,13.24,0,0,1-4,2.72,11.67,11.67,0,0,1-4.58.91,9.54,9.54,0,0,1-6.77-2.3,7.61,7.61,0,0,1-2.47-5.82,7.74,7.74,0,0,1,1.13-4.15,7.32,7.32,0,0,1,3.15-2.79,24.85,24.85,0,0,1,5.85-1.7,40.43,40.43,0,0,0,7.15-1.79v-.72a3.74,3.74,0,0,0-1-3q-1-.89-4-.89a4.4,4.4,0,0,0-4.84,3.44Zm9.84,5.9q-1.41.47-4.48,1.11a13.6,13.6,0,0,0-4,1.27,3,3,0,0,0-1.44,2.56,3.55,3.55,0,0,0,1.15,2.64,4,4,0,0,0,2.93,1.11,6.42,6.42,0,0,0,3.8-1.29,4.56,4.56,0,0,0,1.75-2.41,14.22,14.22,0,0,0,.29-3.55Z"
					transform="translate(-47 -27)"/>
		<path fill="#fff"
					d="M481.37,297.94h7.83l6.65,19.51,6.49-19.51H510l-9.82,26.45-1.75,4.79a19.48,19.48,0,0,1-1.85,3.67,8,8,0,0,1-2,2.06,8.87,8.87,0,0,1-2.8,1.23,14.72,14.72,0,0,1-3.76.44,19.72,19.72,0,0,1-4.16-.44l-.65-5.69a16.58,16.58,0,0,0,3.11.34,4.64,4.64,0,0,0,3.8-1.49,10.29,10.29,0,0,0,1.88-3.79Z"
					transform="translate(-47 -27)"/>
		<path fill="#fff"
					d="M514.12,297.94h6.78v3.75a11,11,0,0,1,8.66-4.37,9.42,9.42,0,0,1,4.63,1.09,8.4,8.4,0,0,1,3.22,3.29,12.81,12.81,0,0,1,4-3.29,9.79,9.79,0,0,1,4.53-1.09,10.18,10.18,0,0,1,5.18,1.23,7.56,7.56,0,0,1,3.17,3.61,15.51,15.51,0,0,1,.76,5.69v17.57h-7.36V309.72q0-4.09-.76-5.28a3.5,3.5,0,0,0-3.14-1.55,5.05,5.05,0,0,0-2.91.93,5.17,5.17,0,0,0-2,2.73,19.43,19.43,0,0,0-.6,5.68v13.2h-7.36V310.36a20.66,20.66,0,0,0-.39-5.18,3.3,3.3,0,0,0-1.22-1.73,3.88,3.88,0,0,0-2.24-.57,5.41,5.41,0,0,0-3.06.91,5,5,0,0,0-1.95,2.61,19.2,19.2,0,0,0-.59,5.67v13.35h-7.36Z"
					transform="translate(-47 -27)"/>
		<path fill="#fff"
					d="M578.43,316.68l7.33,1.22a11.9,11.9,0,0,1-4.46,6.07,13.22,13.22,0,0,1-7.63,2.08q-7.25,0-10.73-4.68a15.61,15.61,0,0,1-2.75-9.47q0-6.83,3.61-10.7a12,12,0,0,1,9.13-3.87,12.41,12.41,0,0,1,9.79,4q3.59,4.05,3.43,12.41H567.72a7.31,7.31,0,0,0,1.78,5,5.59,5.59,0,0,0,4.24,1.8,4.54,4.54,0,0,0,2.91-.93A5.74,5.74,0,0,0,578.43,316.68Zm.42-7.35a7,7,0,0,0-1.65-4.8,5.35,5.35,0,0,0-7.8.09,6.66,6.66,0,0,0-1.54,4.71Z"
					transform="translate(-47 -27)"/>
		<path fill="#fff"
					d="M617.43,325.42h-7.36v-14a21.44,21.44,0,0,0-.47-5.76,4,4,0,0,0-1.53-2,4.42,4.42,0,0,0-2.55-.72,6,6,0,0,0-3.43,1,5.22,5.22,0,0,0-2.08,2.74,23.42,23.42,0,0,0-.56,6.31v12.45h-7.36V297.94h6.83v4a11.48,11.48,0,0,1,13.61-3.79,7.45,7.45,0,0,1,3,2.21,8,8,0,0,1,1.44,3.05,22.49,22.49,0,0,1,.41,4.89Z"
					transform="translate(-47 -27)"/>
		<path fill="#fff"
					d="M637.63,297.94v5.8h-5v11.08a27.17,27.17,0,0,0,.14,3.92,1.59,1.59,0,0,0,.65.92,2.09,2.09,0,0,0,1.24.36,9.61,9.61,0,0,0,3-.7l.63,5.64a14.77,14.77,0,0,1-5.81,1.09,9.28,9.28,0,0,1-3.59-.66,5.22,5.22,0,0,1-2.34-1.71,6.7,6.7,0,0,1-1-2.83,34.85,34.85,0,0,1-.24-5.12v-12h-3.38v-5.8h3.38v-5.46l7.38-4.24v9.7Z"
					transform="translate(-47 -27)"/>
		<path fill="#fff"
					d="M640.15,317.58l7.38-1.11a5.33,5.33,0,0,0,1.91,3.22,6.51,6.51,0,0,0,4,1.1,7.34,7.34,0,0,0,4.29-1,2.3,2.3,0,0,0,1-1.94,1.9,1.9,0,0,0-.52-1.37,5.9,5.9,0,0,0-2.46-1q-8.9-1.94-11.28-3.55a7.06,7.06,0,0,1-3.3-6.19,7.59,7.59,0,0,1,2.85-6q2.85-2.43,8.85-2.43,5.71,0,8.48,1.84a9.4,9.4,0,0,1,3.82,5.43l-6.94,1.27a4.24,4.24,0,0,0-1.69-2.46,6.23,6.23,0,0,0-3.55-.85,8.07,8.07,0,0,0-4.16.8,1.72,1.72,0,0,0-.84,1.48,1.6,1.6,0,0,0,.73,1.32q1,.73,6.87,2t8.21,3.23a6.69,6.69,0,0,1,2.3,5.41,8.27,8.27,0,0,1-3.19,6.5q-3.19,2.72-9.45,2.72-5.68,0-9-2.28A10.49,10.49,0,0,1,640.15,317.58Z"
					transform="translate(-47 -27)"/>
		<path fill="#fff"
					d="M720.11,325.42h-8.43l-3.35-8.62H693l-3.17,8.62h-8.22l14.95-37.94h8.19Zm-14.27-15-5.29-14.08-5.18,14.08Z"
					transform="translate(-47 -27)"/>
		<path fill="#fff"
					d="M731.21,325.42h-7.35V297.94h6.83v3.91a11.79,11.79,0,0,1,3.15-3.65,5.85,5.85,0,0,1,3.18-.88,9.42,9.42,0,0,1,4.84,1.37L739.58,305a6.51,6.51,0,0,0-3.46-1.19,4.11,4.11,0,0,0-2.62.84,5.73,5.73,0,0,0-1.69,3q-.62,2.2-.62,9.21Z"
					transform="translate(-47 -27)"/>
		<path fill="#fff"
					d="M761.13,316.68l7.33,1.22A11.9,11.9,0,0,1,764,324a13.23,13.23,0,0,1-7.63,2.08q-7.25,0-10.73-4.68a15.61,15.61,0,0,1-2.75-9.47q0-6.83,3.61-10.7a12,12,0,0,1,9.13-3.87,12.41,12.41,0,0,1,9.79,4q3.59,4.05,3.43,12.41H750.42a7.31,7.31,0,0,0,1.78,5,5.6,5.6,0,0,0,4.24,1.8,4.54,4.54,0,0,0,2.9-.93A5.75,5.75,0,0,0,761.13,316.68Zm.42-7.35a7,7,0,0,0-1.65-4.8,5.35,5.35,0,0,0-7.8.09,6.66,6.66,0,0,0-1.54,4.71Z"
					transform="translate(-47 -27)"/>
		<path fill="#fff"
					d="M780.34,306.33l-6.67-1.19a10.27,10.27,0,0,1,3.87-5.9q2.75-1.91,8.17-1.92a17.79,17.79,0,0,1,7.33,1.15,7.29,7.29,0,0,1,3.39,2.92q1,1.77,1,6.51l-.08,8.49a29.09,29.09,0,0,0,.35,5.34,15.42,15.42,0,0,0,1.32,3.69h-7.28q-.29-.72-.71-2.15c-.12-.43-.21-.72-.26-.85a13.24,13.24,0,0,1-4,2.72,11.66,11.66,0,0,1-4.58.91,9.54,9.54,0,0,1-6.77-2.3,7.61,7.61,0,0,1-2.47-5.82,7.74,7.74,0,0,1,1.13-4.15,7.32,7.32,0,0,1,3.15-2.79,24.84,24.84,0,0,1,5.85-1.7,40.4,40.4,0,0,0,7.15-1.79v-.72a3.74,3.74,0,0,0-1-3q-1-.89-4-.89a4.4,4.4,0,0,0-4.84,3.44Zm9.84,5.9q-1.41.47-4.48,1.11a13.6,13.6,0,0,0-4,1.27,3,3,0,0,0-1.44,2.56,3.55,3.55,0,0,0,1.15,2.64,4,4,0,0,0,2.93,1.11,6.42,6.42,0,0,0,3.8-1.29,4.56,4.56,0,0,0,1.75-2.41,14.23,14.23,0,0,0,.29-3.55Z"
					transform="translate(-47 -27)"/>
	</g>
</svg>