<svg
	width="58"
	height="35"
	viewBox="0 0 58 35"
	xmlns="http://www.w3.org/2000/svg">
	<g>
		<g fill="#ff5023" opacity="1" transform="translate(-12 -29)">
			<path d="m26 56a1 1 0 0 0 -1-1h-9a1 1 0 0 0 0 2h9a1 1 0 0 0 1-1z"/>
			<path d="m26 60h-8a1 1 0 0 0 0 2h8a1 1 0 0 0 0-2z"/>
			<path d="m14 60h-1a1 1 0 0 0 0 2h1a1 1 0 0 0 0-2z"/>
			<path d="m26 50h-8a1 1 0 0 0 0 2h8a1 1 0 0 0 0-2z"/>
			<path d="m13 52h1a1 1 0 0 0 0-2h-1a1 1 0 0 0 0 2z"/>
			<path d="m29 47a1 1 0 0 0 -1-1h-4a1 1 0 0 0 0 2h4a1 1 0 0 0 1-1z"/>
			<path d="m20 48a1 1 0 0 0 0-2h-1a1 1 0 0 0 0 2z"/>
		</g>
		<g id="money" transform="translate(6 7.5) scale(0.7)">
			<path d="m61 5a2.006 2.006 0 0 0 -2-2h-54a2.006 2.006 0 0 0 -2 2v15h58z" fill="#8D8DA5"/>
			<path d="m3 20v15a2.006 2.006 0 0 0 2 2h54a2.006 2.006 0 0 0 2-2v-15z" fill="#6E6E82"/>
			<path d="m57 10.65a5.952 5.952 0 0 1 -3.65-3.65h-42.7a5.952 5.952 0 0 1 -3.65 3.65v9.35h50z" fill="#A3A3BB"/>
			<path d="m7 20v9.35a5.952 5.952 0 0 1 3.65 3.65h42.7a5.952 5.952 0 0 1 3.65-3.65v-9.35z" fill="#8D8DA5"/>
			<path d="m32 29c6.075 0 11-4.029 11-9h-22c0 4.971 4.925 9 11 9z" fill="#6D6F70"/>
			<path d="m32 11c-6.075 0-11 4.029-11 9h22c0-4.971-4.925-9-11-9z" fill="#828384"/>
			<path transform="translate(9 9.5) scale(0.06 0.06)" fill="#fdd105" d="M340.56,139.38H445.14c-.45,1.37-.62,2.14-.94,2.83-3.51,7.52-7.17,15-10.51,22.58-1.11,2.53-2.46,3.52-5.25,3.37-4.65-.24-9.33-.06-14-.06H331.2v14.81h94l-13.66,29.2H343.33C361.17,242,413.47,254.94,448,217c0,2.77,0,4.8,0,6.82,0,8.17-.22,16.34.11,24.5.14,3.4-1.21,5.13-3.88,6.66-23.91,13.71-49.23,17.69-75.93,10.47-27.84-7.53-48.41-24.3-61.4-50.11-1.38-2.74-3-3.38-5.82-3.34-9.82.13-19.64.05-30.1.05l13.52-29h13.05V168.39H269.76c4.37-9.42,8.41-18.1,12.42-26.79.92-2,2.5-2.3,4.5-2.27,5.82.1,11.65,0,17.61,0,15.39-32.26,40.35-52,75.74-57.31s65.46,10.16,80.93,26l-11.5,24.8c-19.54-21.78-43.31-30.19-71.65-22.21C362.07,115.08,349.87,124.69,340.56,139.38Z"/>
			<path d="m47 19a1 1 0 0 0 0 2h4a1 1 0 0 0 0-2z" fill="#d80027"/>
			<path d="m13 19a1 1 0 0 0 0 2h4a1 1 0 0 0 0-2z" fill="#fdd105"/>
		</g>
		<g fill="#ff5023" opacity="0.5" transform="translate(-12 -29)">
			<path d="m26 56a1 1 0 0 0 -1-1h-9a1 1 0 0 0 0 2h9a1 1 0 0 0 1-1z"/>
			<path d="m26 60h-8a1 1 0 0 0 0 2h8a1 1 0 0 0 0-2z"/>
			<path d="m14 60h-1a1 1 0 0 0 0 2h1a1 1 0 0 0 0-2z"/>
			<path d="m26 50h-8a1 1 0 0 0 0 2h8a1 1 0 0 0 0-2z"/>
			<path d="m13 52h1a1 1 0 0 0 0-2h-1a1 1 0 0 0 0 2z"/>
			<path d="m29 47a1 1 0 0 0 -1-1h-4a1 1 0 0 0 0 2h4a1 1 0 0 0 1-1z"/>
			<path d="m20 48a1 1 0 0 0 0-2h-1a1 1 0 0 0 0 2z"/>
		</g>
	</g>
	<g transform="translate(10 -22.1) scale(0.09 0.09)">
		<g id="world" opacity="1">
			<path d="M 537.398438 558.851562 C 560.398438 563.851562 582.601562 571.949219 603.300781 583.148438 C 636.5 546.25 654.800781 498.351562 654.699219 448.648438 L 553.800781 448.648438 C 554.101562 485.949219 548.601562 523.148438 537.398438 558.851562 Z M 537.398438 558.851562 " style=" stroke:none;fill-rule:nonzero;fill:rgb(67.843137%,83.137255%,95.294118%);fill-opacity:1;" />
			<path d="M 537.398438 338.449219 C 548.601562 374.050781 554.101562 411.25 553.800781 448.648438 L 654.699219 448.648438 C 654.699219 399.050781 636.398438 351.148438 603.300781 314.148438 C 582.5 325.351562 560.398438 333.449219 537.398438 338.449219 Z M 537.398438 338.449219 " style=" stroke:none;fill-rule:nonzero;fill:rgb(81.568627%,90.196078%,97.254902%);fill-opacity:1;" />
			<path d="M 352.101562 448.648438 L 251.199219 448.648438 C 251.199219 498.25 269.5 546.148438 302.601562 583.148438 C 323.300781 571.949219 345.5 563.75 368.5 558.851562 C 357.300781 523.148438 351.800781 485.949219 352.101562 448.648438 Z M 352.101562 448.648438 " style=" stroke:none;fill-rule:nonzero;fill:rgb(40.784314%,69.019608%,90.980392%);fill-opacity:1;" />
			<path d="M 368.5 338.449219 C 345.5 333.449219 323.300781 325.351562 302.601562 314.148438 C 269.398438 351.050781 251.101562 398.949219 251.199219 448.648438 L 352.101562 448.648438 C 351.800781 411.25 357.300781 374.050781 368.5 338.449219 Z M 368.5 338.449219 " style=" stroke:none;fill-rule:nonzero;fill:rgb(49.803922%,74.117647%,92.54902%);fill-opacity:1;" />
			<path d="M 452.898438 347.75 L 452.898438 448.648438 L 553.800781 448.648438 C 554.101562 411.25 548.5 374.148438 537.398438 338.449219 C 509.699219 344.75 481.300781 347.851562 452.898438 347.75 Z M 452.898438 347.75 " style=" stroke:none;fill-rule:nonzero;fill:rgb(58.823529%,78.823529%,93.72549%);fill-opacity:1;" />
			<path d="M 452.898438 549.449219 C 481.300781 549.351562 509.601562 552.449219 537.300781 558.75 C 548.5 523.148438 554 485.949219 553.800781 448.550781 L 452.898438 448.550781 Z M 452.898438 549.449219 " style=" stroke:none;fill-rule:nonzero;fill:rgb(49.803922%,74.117647%,92.54902%);fill-opacity:1;" />
			<path d="M 452.898438 347.75 C 424.5 347.851562 396.199219 344.75 368.5 338.449219 C 357.300781 374.050781 351.800781 411.25 352 448.648438 L 452.898438 448.648438 Z M 452.898438 347.75 " style=" stroke:none;fill-rule:nonzero;fill:rgb(40.784314%,69.019608%,90.980392%);fill-opacity:1;" />
			<path d="M 352.101562 448.648438 C 351.800781 486.050781 357.398438 523.148438 368.5 558.851562 C 396.199219 552.550781 424.5 549.449219 452.898438 549.550781 L 452.898438 448.648438 Z M 352.101562 448.648438 " style=" stroke:none;fill-rule:nonzero;fill:rgb(31.372549%,61.568627%,85.098039%);fill-opacity:1;" />
			<path d="M 537.398438 338.449219 C 560.398438 333.449219 582.601562 325.351562 603.300781 314.148438 C 565.101562 271.351562 510.398438 246.851562 453 246.949219 C 488.300781 246.949219 519.398438 283.351562 537.398438 338.449219 Z M 537.398438 338.449219 " style=" stroke:none;fill-rule:nonzero;fill:rgb(85.882353%,92.54902%,98.039216%);fill-opacity:1;" />
			<path d="M 452.898438 246.949219 C 395.5 246.851562 340.800781 271.351562 302.601562 314.148438 C 323.300781 325.351562 345.5 333.449219 368.5 338.449219 C 386.5 283.351562 417.601562 246.949219 452.898438 246.949219 Z M 452.898438 246.949219 " style=" stroke:none;fill-rule:nonzero;fill:rgb(58.823529%,78.823529%,93.72549%);fill-opacity:1;" />
			<path d="M 368.5 338.449219 C 396.199219 344.75 424.5 347.851562 452.898438 347.75 L 452.898438 246.949219 C 417.601562 246.949219 386.5 283.351562 368.5 338.449219 Z M 368.5 338.449219 " style=" stroke:none;fill-rule:nonzero;fill:rgb(49.803922%,74.117647%,92.54902%);fill-opacity:1;" />
			<path d="M 537.300781 338.449219 C 519.300781 283.351562 488.300781 246.851562 452.898438 246.851562 L 452.898438 347.75 C 481.300781 347.851562 509.601562 344.75 537.300781 338.449219 Z M 537.300781 338.449219 " style=" stroke:none;fill-rule:nonzero;fill:rgb(67.843137%,83.137255%,95.294118%);fill-opacity:1;" />
			<path d="M 368.5 558.851562 C 345.5 563.851562 323.300781 571.949219 302.601562 583.148438 C 340.800781 625.949219 395.5 650.449219 452.898438 650.351562 C 417.601562 650.351562 386.5 613.851562 368.5 558.851562 Z M 368.5 558.851562 " style=" stroke:none;fill-rule:nonzero;fill:rgb(31.372549%,61.568627%,85.098039%);fill-opacity:1;" />
			<path d="M 452.898438 650.351562 C 510.300781 650.449219 565 625.949219 603.199219 583.148438 C 582.5 571.949219 560.300781 563.75 537.300781 558.851562 C 519.398438 613.851562 488.300781 650.351562 452.898438 650.351562 Z M 452.898438 650.351562 " style=" stroke:none;fill-rule:nonzero;fill:rgb(58.823529%,78.823529%,93.72549%);fill-opacity:1;" />
			<path d="M 537.398438 558.851562 C 509.699219 552.550781 481.398438 549.449219 453 549.550781 L 453 650.351562 C 488.300781 650.351562 519.398438 613.851562 537.398438 558.851562 Z M 537.398438 558.851562 " style=" stroke:none;fill-rule:nonzero;fill:rgb(40.784314%,69.019608%,90.980392%);fill-opacity:1;" />
			<path d="M 368.601562 558.75 C 386.601562 613.851562 417.601562 650.351562 453 650.351562 L 453 549.449219 C 424.5 549.351562 396.199219 552.550781 368.601562 558.75 Z M 368.601562 558.75 " style=" stroke:none;fill-rule:nonzero;fill:rgb(30.196078%,56.078431%,76.078431%);fill-opacity:1;" />
		</g>
		<g id="arrows" transform="translate(160 40)" opacity="0.8">
			<g transform="translate(0 -25)">
				<path d="M 15.898438 515.851562 L 217.601562 515.851562 L 217.601562 538.25 L 15.898438 538.25 Z M 15.898438 515.851562 " fill="#ff5023"/>
				<path d="M 180.699219 579.851562 L 164.800781 563.949219 L 201.699219 527.050781 L 164.800781 490.148438 L 180.699219 474.351562 L 233.398438 527.050781 Z M 180.699219 579.851562 " fill="#ff5023" />
			</g>
			<g>
				<path d="M 15.898438 370.148438 L 217.601562 370.148438 L 217.601562 392.550781 L 15.898438 392.550781 Z M 15.898438 370.148438 " fill="#ff5023" />
				<path d="M 52.800781 434.148438 L 0 381.351562 L 52.800781 328.648438 L 68.601562 344.449219 L 31.699219 381.351562 L 68.601562 418.25 Z M 52.800781 434.148438 " fill="#ff5023" />
			</g>
		</g>
	</g>
</svg>