<svg version="1.1"
		 xmlns="http://www.w3.org/2000/svg"
		 xmlns:xlink="http://www.w3.org/1999/xlink"
		 width="58"
		 height="35"
		 viewBox="208.34 337.8 193.98 117.06">
	<g transform="translate(-12.0 0) scale(1.039 1)">
		<polygon fill-rule="evenodd" clip-rule="evenodd" fill="#005A9C" points="211.834,337.848 211.834,454.908 398.921,454.908
			398.921,337.848 211.834,337.848 	"/>
		<polygon fill-rule="evenodd" clip-rule="evenodd" fill="#FFFFFF" points="396.735,340.034 396.735,452.723 214.021,452.723
			214.021,340.034 396.735,340.034 	"/>
		<polygon fill-rule="evenodd" clip-rule="evenodd" fill="#005A9C" points="390.912,447.814 390.912,345.501 219.473,345.501
			219.473,447.814 390.912,447.814 	"/>
		<path fill-rule="evenodd" clip-rule="evenodd" fill="#FBAA29" d="M266.39,407.309c18.176-7.791,43.681-14.851,77.455-7.781
			l0.356-8.566c-35.637-3.892-61.208,7.457-77.812,15.502V407.309L266.39,407.309z"/>
		<polygon fill-rule="evenodd" clip-rule="evenodd" fill="#FFFFFF" points="233.575,413.605 250.704,413.605 250.704,418.766
			240.061,418.766 239.99,423.533 250.597,423.533 250.597,428.479 239.954,428.479 239.992,433.244 250.489,433.244
			250.489,438.404 233.581,438.404 233.575,413.605 	"/>
		<polygon fill-rule="evenodd" clip-rule="evenodd" fill="#FFFFFF" points="255.006,411.527 261.241,411.527 261.263,438.404
			255.028,438.404 255.006,411.527 	"/>
		<path fill-rule="evenodd" clip-rule="evenodd" fill="#FFFFFF" d="M282.69,436.361c-2.114,1.791-5.339,2.688-8.207,2.688
			c-6.557,0-9.532-4.658-9.532-9.281c0-5.447,4.085-10.07,9.711-10.07c6.88,0,9.03,4.875,9.03,11.074h-12.506
			c0,1.396,0.896,3.762,4.336,3.762c2.186,0,3.404-0.645,5.089-1.791L282.69,436.361L282.69,436.361z M278.103,427.115
			c0-1.863-0.896-3.547-2.974-3.547c-1.971,0-3.476,1.756-3.87,3.547H278.103L278.103,427.115z"/>
		<path fill-rule="evenodd" clip-rule="evenodd" fill="#FFFFFF" d="M302.614,437.186c-1.72,1.074-4.551,1.863-6.629,1.863
			c-5.734,0-9.855-3.297-9.855-9.246c0-6.092,4.085-10.105,10.249-10.105c2.15,0,4.73,0.682,6.127,1.578l-2.007,4.084
			c-0.932-0.393-1.935-0.717-2.938-0.717c-3.117,0-5.196,1.865-5.196,4.838c0,2.58,2.007,4.623,4.659,4.623
			c1.182,0,2.365-0.537,3.368-1.039L302.614,437.186L302.614,437.186z"/>
		<path fill-rule="evenodd" clip-rule="evenodd" fill="#FFFFFF" d="M304.92,420.344h2.816l-0.021-6.129h6.021l-0.144,6.129h5.124
			l-0.107,4.514h-5.124c0,2.51-0.18,5.16-0.18,6.701c0,1.578,0.395,2.33,1.792,2.33c0.86,0,1.577-0.43,2.294-0.859l1.361,4.229
			c-1.828,1.109-4.05,1.791-6.164,1.791c-5.053,0-5.303-3.189-5.303-7.346c0-2.223,0.179-4.443,0.179-6.846h-2.688L304.92,420.344
			L304.92,420.344z"/>
		<path fill-rule="evenodd" clip-rule="evenodd" fill="#FFFFFF" d="M321.907,420.344h6.234v2.543h0.072
			c0.932-1.539,2.149-3.045,4.587-3.045c0.681,0,1.397,0.072,2.042,0.215l-0.824,6.164c-0.609-0.18-1.29-0.359-2.222-0.359
			c-2.078,0-3.691,1.756-3.691,2.115l-0.107,10.428h-6.234L321.907,420.344L321.907,420.344z"/>
		<path fill-rule="evenodd" clip-rule="evenodd" fill="#FFFFFF" d="M346.138,419.697c6.665,0,10.105,4.229,10.105,9.676
			s-3.44,9.676-10.105,9.676s-10.105-4.229-10.105-9.676S339.473,419.697,346.138,419.697L346.138,419.697z M346.138,434.318
			c2.975,0,3.87-2.58,3.87-4.945s-0.896-4.945-3.87-4.945s-3.87,2.58-3.87,4.945S343.163,434.318,346.138,434.318L346.138,434.318z"
		/>
		<path fill-rule="evenodd" clip-rule="evenodd" fill="#FFFFFF" d="M359.632,420.344h6.235v1.971c1.434-1.398,3.62-2.617,5.842-2.617
			c3.834,0,5.912,2.115,5.912,7.061c0,3.691-0.035,7.668-0.071,11.646h-6.235c0.036-3.477,0.071-6.988,0.071-10.715
			c0-1.469-0.394-2.617-2.258-2.617c-1.003,0-2.437,0.861-3.261,1.648l-0.033,11.684h-6.345L359.632,420.344L359.632,420.344z"/>
		<polygon fill-rule="evenodd" clip-rule="evenodd" fill="#FFFFFF" points="284.864,383.141 292.744,357.168 299.771,357.168
			291.893,383.141 284.864,383.141 	"/>
		<path fill-rule="evenodd" clip-rule="evenodd" fill="#FFFFFF" d="M281.723,357.174l-6.323,11.01
			c-1.609,2.886-2.551,4.343-3.003,6.164h-0.095c0.111-2.311-0.211-5.146-0.241-6.749l-0.698-10.425H259.53l-0.123,0.7
			c3.04,0,4.843,1.526,5.34,4.65l2.306,20.617h7.282l14.725-25.967H281.723L281.723,357.174z"/>
		<path fill-rule="evenodd" clip-rule="evenodd" fill="#FFFFFF" d="M336.384,383.141l-0.194-3.863l-8.776-0.006l-1.795,3.869h-7.631
			l13.835-25.924h9.368l2.343,25.924H336.384L336.384,383.141z M335.577,367.821c-0.078-1.92-0.144-4.525-0.013-6.103h-0.104
			c-0.429,1.291-2.266,5.162-3.073,7.066l-2.615,5.693l6.163,0L335.577,367.821L335.577,367.821z"/>
		<path fill-rule="evenodd" clip-rule="evenodd" fill="#FFFFFF" d="M307.15,383.881c-4.961,0-8.255-1.575-10.605-2.979l3.347-5.113
			c2.111,1.181,3.769,2.543,7.582,2.543c1.227,0,2.406-0.318,3.077-1.48c0.978-1.69-0.225-2.598-2.97-4.153l-1.355-0.882
			c-4.071-2.781-5.833-5.422-3.917-10.034c1.228-2.949,4.46-5.185,9.795-5.185c3.68,0,7.129,1.59,9.139,3.146l-3.849,4.515
			c-1.963-1.586-3.588-2.389-5.45-2.389c-1.481,0-2.609,0.572-2.997,1.344c-0.732,1.452,0.236,2.438,2.375,3.768l1.613,1.026
			c4.941,3.115,6.118,6.383,4.88,9.439C315.685,382.705,311.514,383.881,307.15,383.881L307.15,383.881z"/>
	</g>
</svg>
