<svg version="1.1"
		 xmlns="http://www.w3.org/2000/svg"
		 xmlns:xlink="http://www.w3.org/1999/xlink"
		 viewBox="0 100 473.96 273.96"
		 width="58"
		 height="35"
		 xml:space="preserve">
	<path fill="#f3f2f2" d="M0,0 l474,0 l0,474 l-474,0z"/>
	<path fill="#293688" d="M0,0 l474,0 l0,154 l-474,0z"/>
	<path fill="#F7981D" d="M0,474 l474,0 l0,-154 l-474,0z"/>
	<g transform="translate(0 5)">
		<polygon fill="#293688" points="175.483,282.447 193.616,175.373 222.973,175.373 204.841,282.447 	"/>
		<path fill="#293688" d="M309.352,178.141c-5.818-2.17-14.933-4.494-26.316-4.494c-29.014,0-49.451,14.526-49.627,35.337
		c-0.161,15.382,14.589,23.962,25.732,29.088c11.427,5.238,15.27,8.599,15.214,13.28c-0.071,7.177-9.13,10.458-17.571,10.458
		c-11.749-0.004-17.994-1.624-27.637-5.62l-3.783-1.706l-4.123,23.97c6.859,2.99,19.543,5.583,32.71,5.714
		c30.858-0.007,50.899-14.353,51.124-36.583c0.112-12.179-7.712-21.448-24.651-29.092c-10.264-4.947-16.55-8.251-16.482-13.272
		c0-4.449,5.324-9.208,16.815-9.208c9.601-0.15,16.557,1.931,21.979,4.101l2.627,1.235L309.352,178.141L309.352,178.141z"/>
		<path fill="#293688" d="M359.405,175.373c-7.034,0-12.116,2.148-15.207,9.119l-43.509,97.959h31.083l6.043-16.408h37.137
		l3.45,16.408h27.633L381.86,175.376h-22.454L359.405,175.373L359.405,175.373z M346.062,244.618
		c2.425-6.166,11.693-29.927,11.693-29.927c-0.168,0.281,2.413-6.196,3.895-10.215l1.987,9.227c0,0,5.616,25.56,6.795,30.918h-24.37
		V244.618z"/>
		<path fill="#293688" d="M121.946,248.771l-2.586-14.679c-5.358-17.111-21.987-35.625-40.621-44.901l25.938,93.256h31.09
		l46.626-107.074H151.31L121.946,248.771z"/>
		<path fill="#F7981D" d="M46.823,175.373v1.729c36.838,8.86,62.413,31.259,72.538,56.991l-10.645-49.582
			c-1.777-6.776-7.162-8.902-13.534-9.137L46.823,175.373L46.823,175.373z"/>
	</g>
</svg>
